<?xml version="1.0" encoding="UTF-8"?>
<svg xmlns="http://www.w3.org/2000/svg" xmlns:xlink="http://www.w3.org/1999/xlink" width="504pt" height="288pt" viewBox="0 0 504 288" version="1.1">
<defs>
<clipPath id="clip1">
  <path d="M 59.039062 59.039062 L 473.757812 59.039062 L 473.757812 214.558594 L 59.039062 214.558594 Z M 59.039062 59.039062 "/>
</clipPath>
</defs>
<g id="surface6">
<rect x="0" y="0" width="504" height="288" style="fill:rgb(100%,100%,100%);fill-opacity:1;stroke:none;"/>
<g clip-path="url(#clip1)" clip-rule="nonzero">
<path style="fill-rule:nonzero;fill:rgb(100%,100%,100%);fill-opacity:1;stroke-width:0.75;stroke-linecap:round;stroke-linejoin:round;stroke:rgb(100%,100%,100%);stroke-opacity:1;stroke-miterlimit:10;" d="M 59.039062 214.558594 L 473.757812 214.558594 L 473.757812 59.039062 L 59.039062 59.039062 Z M 59.039062 214.558594 "/>
</g>
<path style="fill:none;stroke-width:0.75;stroke-linecap:round;stroke-linejoin:round;stroke:rgb(0%,0%,0%);stroke-opacity:1;stroke-miterlimit:10;" d="M 305.539062 181.171875 L 305.191406 181.941406 L 305.164062 182.117188 L 305.226562 182.097656 L 305.347656 182.351562 L 305.40625 182.410156 L 305.550781 182.484375 L 305.398438 182.636719 L 305.367188 182.859375 L 305.429688 183.457031 L 305.417969 183.765625 L 305.382812 184.03125 L 305.3125 184.273438 L 305.113281 184.730469 L 305.058594 184.816406 L 304.960938 184.917969 L 304.871094 184.960938 L 304.628906 185 L 304.589844 184.992188 L 304.492188 185.203125 L 304.390625 185.695312 L 304.363281 185.667969 L 303.890625 185.441406 L 303.710938 185.152344 L 303.523438 185.003906 L 303.320312 184.886719 L 302.121094 184.535156 L 301.734375 184.589844 L 301.355469 184.738281 L 301.25 184.839844 L 301.1875 184.96875 L 301.195312 185.035156 L 301.226562 185.121094 L 301.273438 185.453125 L 301.382812 185.632812 L 301.40625 185.792969 L 301.375 185.972656 L 301.21875 186.324219 L 301.164062 186.492188 L 301.144531 186.664062 L 301.164062 187.1875 L 301.140625 187.378906 L 301.089844 187.503906 L 301.035156 187.601562 L 301.015625 187.695312 L 300.949219 188.089844 L 300.785156 188.375 L 299.652344 189.429688 L 299.265625 189.660156 L 297.667969 189.957031 L 296.46875 190.464844 L 296.28125 190.605469 L 295.851562 191.046875 L 295.476562 191.269531 L 295.296875 191.421875 L 295.3125 191.46875 L 294.671875 191.601562 L 294.496094 191.699219 L 294.390625 191.824219 L 294.179688 192.179688 L 294.027344 192.363281 L 293.566406 192.710938 L 293.519531 192.769531 L 293.355469 193.046875 L 293.285156 193.082031 L 293.207031 193.078125 L 293.132812 193.105469 L 293.0625 193.238281 L 293.042969 193.488281 L 293.101562 193.730469 L 293.203125 193.953125 L 293.3125 194.136719 L 294.125 195.046875 L 294.300781 195.460938 L 294.332031 195.660156 L 294.335938 195.6875 L 294.398438 195.878906 L 294.488281 196.027344 L 294.769531 196.203125 L 295 196.460938 L 295.09375 196.515625 L 295.289062 196.722656 L 295.683594 197.699219 L 295.933594 198.101562 L 295.988281 198.160156 L 295.238281 199.445312 L 295.175781 199.589844 L 295.152344 199.710938 L 295.148438 199.828125 L 295.128906 199.949219 L 295.054688 200.082031 L 295.050781 200.082031 L 294.835938 200.441406 L 295.027344 200.648438 L 295.671875 200.777344 L 295.84375 200.746094 L 296.140625 200.605469 L 296.316406 200.636719 L 296.460938 200.753906 L 296.605469 200.941406 L 296.832031 201.355469 L 296.921875 201.625 L 296.957031 201.863281 L 296.949219 202.085938 L 296.921875 202.308594 L 296.894531 202.351562 L 296.757812 202.714844 L 296.75 202.765625 L 296.5625 203.03125 L 296.53125 203.019531 L 296.539062 203.4375 L 296.566406 203.425781 L 296.554688 203.453125 L 296.441406 203.753906 L 296.414062 203.800781 L 296.414062 204.125 L 296.421875 204.238281 L 296.449219 204.339844 L 296.488281 204.433594 L 296.515625 204.546875 L 296.519531 204.699219 L 296.191406 205.125 L 296.109375 205.199219 L 295.984375 205.207031 L 295.914062 205.15625 L 295.847656 205.085938 L 295.738281 205.019531 L 295.617188 205.023438 L 295.519531 205.078125 L 295.421875 205.117188 L 295.296875 205.0625 L 294.726562 204.597656 L 294.199219 203.96875 L 294.101562 203.882812 L 293.992188 203.839844 L 293.8125 203.808594 L 293.527344 203.558594 L 293.464844 203.101562 L 293.609375 202.675781 L 293.921875 202.503906 L 293.695312 202.265625 L 293.394531 202.050781 L 293.210938 201.8125 L 293.332031 201.488281 L 293.132812 201.515625 L 292.480469 201.335938 L 292.070312 201.335938 L 291.65625 201.441406 L 291.4375 201.5625 L 291.03125 201.953125 L 290.917969 202.058594 L 290.738281 202.144531 L 290.496094 202.195312 L 290.257812 202.191406 L 290.09375 202.101562 L 289.75 201.804688 L 289.65625 201.683594 L 289.59375 201.53125 L 289.472656 201.140625 L 289.417969 201.03125 L 289.226562 200.992188 L 288.773438 201.179688 L 288.574219 201.214844 L 287.90625 201.0625 L 287.652344 201.101562 L 287.394531 201.246094 L 287.269531 201.265625 L 287.152344 201.15625 L 287.089844 200.953125 L 287.128906 200.824219 L 287.203125 200.710938 L 287.242188 200.566406 L 287.273438 200.371094 L 287.308594 200.285156 L 287.28125 200.289062 L 287.113281 200.371094 L 287.011719 200.4375 L 286.734375 200.6875 L 286.550781 200.769531 L 286.570312 200.917969 L 286.609375 201.023438 L 286.695312 201.144531 L 286.789062 201.246094 L 286.847656 201.285156 L 286.878906 201.386719 L 286.898438 201.882812 L 286.886719 202.054688 L 286.84375 202.171875 L 286.515625 202.628906 L 286.421875 202.652344 L 283.761719 202.527344 L 282.789062 202.738281 L 282.660156 202.824219 L 282.542969 203.136719 L 282.421875 203.179688 L 281.769531 203.035156 L 280.828125 203.03125 L 280.320312 202.921875 L 280.105469 202.914062 L 280.066406 202.96875 L 279.742188 203.269531 L 279.664062 203.46875 L 279.574219 203.894531 L 279.515625 204.066406 L 279.304688 204.320312 L 279.054688 204.425781 L 278.507812 204.523438 L 278.246094 204.433594 L 277.960938 204.390625 L 277.699219 204.457031 L 277.152344 205.136719 L 277.296875 205.179688 L 277.421875 205.269531 L 277.464844 205.40625 L 277.367188 205.589844 L 277.179688 205.675781 L 276.675781 205.691406 L 276.460938 205.765625 L 276.234375 205.988281 L 276.082031 206.214844 L 275.917969 206.40625 L 275.664062 206.53125 L 275.386719 206.496094 L 275.414062 205.992188 L 275.164062 205.882812 L 274.871094 205.96875 L 274.117188 206.539062 L 273.890625 206.613281 L 272.679688 206.59375 L 272.519531 206.492188 L 272.402344 206.242188 L 272.429688 206.238281 L 272.464844 206.15625 L 272.492188 206.027344 L 272.488281 205.902344 L 272.453125 205.820312 L 271.875 205.144531 L 271.277344 204.84375 L 271.199219 204.699219 L 271.574219 204.421875 L 271.671875 204.296875 L 271.40625 204.082031 L 271.28125 204.003906 L 271.121094 203.992188 L 270.957031 204.042969 L 270.488281 204.273438 L 270.148438 204.320312 L 270.046875 204.285156 L 269.992188 204.199219 L 269.953125 204.105469 L 269.90625 204.046875 L 268.375 203.421875 L 268.097656 203.417969 L 267.9375 203.539062 L 267.703125 203.890625 L 267.554688 204.019531 L 267.417969 204.046875 L 266.925781 203.964844 L 266.742188 203.875 L 266.648438 203.800781 L 266.589844 203.71875 L 266.566406 203.558594 L 266.609375 203.441406 L 266.667969 203.351562 L 266.679688 203.28125 L 266.628906 203.105469 L 266.589844 203.074219 L 266.5 203.109375 L 266.304688 203.148438 L 266.132812 203.222656 L 266.148438 203.382812 L 266.25 203.585938 L 266.328125 203.792969 L 266.3125 203.964844 L 266.195312 204.699219 L 266.359375 204.796875 L 266.457031 204.914062 L 266.519531 205.078125 L 266.566406 205.304688 L 266.570312 205.703125 L 266.464844 206.117188 L 266.296875 206.492188 L 266.101562 206.769531 L 266.003906 206.84375 L 265.757812 206.933594 L 265.640625 207.019531 L 265.570312 207.136719 L 265.3125 207.699219 L 265.105469 208 L 264.878906 208.226562 L 264.359375 208.570312 L 264.105469 208.679688 L 263.359375 208.777344 L 263.1875 208.800781 L 263.136719 208.765625 L 263.183594 208.652344 L 263.289062 208.445312 L 263.335938 208.410156 L 263.488281 208.359375 L 263.542969 208.296875 L 263.574219 208.175781 L 263.566406 208.066406 L 263.539062 207.945312 L 263.75 207.261719 L 263.757812 206.925781 L 263.546875 206.800781 L 263.035156 206.902344 L 262.898438 207.066406 L 262.851562 207.109375 L 262.789062 207.109375 L 262.671875 207.03125 L 262.613281 207.019531 L 262.460938 207.101562 L 262.371094 207.171875 L 262.292969 207.175781 L 262.183594 207.058594 L 262.121094 206.878906 L 262.109375 206.679688 L 262.078125 206.488281 L 261.949219 206.328125 L 262.214844 206.105469 L 262.269531 205.914062 L 262.167969 205.695312 L 261.597656 204.792969 L 261.464844 204.859375 L 261.363281 204.957031 L 261.261719 205.003906 L 261.132812 204.921875 L 261.113281 204.8125 L 261.113281 204.703125 L 261.007812 204.453125 L 260.859375 204.296875 L 260.742188 204.125 L 260.707031 203.816406 L 260.566406 203.9375 L 260.394531 203.976562 L 260.046875 203.945312 L 259.699219 203.808594 L 259.640625 203.824219 L 259.5 203.925781 L 259.40625 203.933594 L 259.167969 203.800781 L 259.125 203.605469 L 259.148438 203.378906 L 259.109375 203.160156 L 258.972656 203 L 258.808594 202.9375 L 258.636719 202.957031 L 258.46875 203.054688 L 258.214844 203.371094 L 258.074219 203.707031 L 257.90625 203.992188 L 257.589844 204.152344 L 256.847656 204.167969 L 256.167969 203.964844 L 256.121094 203.953125 L 256.09375 203.933594 L 252.914062 201.796875 L 252.464844 201.6875 L 252.03125 201.6875 L 251.875 201.421875 L 251.234375 201.421875 L 249.941406 201.265625 L 249.722656 201.359375 L 249.539062 201.574219 L 249.117188 201.71875 L 248.664062 201.765625 L 248.378906 201.6875 L 248.042969 201.417969 L 248.035156 201.40625 L 247.871094 201.230469 L 247.871094 201.101562 L 248.082031 201.046875 L 247.78125 200.742188 L 247.40625 200.507812 L 247.09375 200.492188 L 246.988281 200.851562 L 247.082031 200.96875 L 246.472656 200.976562 L 246.449219 200.855469 L 246.421875 200.714844 L 246.328125 200.59375 L 246.277344 200.441406 L 246.316406 200.320312 L 246.472656 200.070312 L 246.503906 200.003906 L 246.425781 199.816406 L 246.3125 199.792969 L 246.183594 199.820312 L 246.066406 199.792969 L 245.980469 199.644531 L 245.886719 199.429688 L 245.777344 199.25 L 245.625 199.195312 L 245.519531 199.3125 L 245.460938 199.714844 L 245.316406 199.816406 L 245.203125 199.726562 L 245.164062 199.5 L 245.152344 199.261719 L 245.132812 199.128906 L 244.921875 199.023438 L 244.632812 199.007812 L 244.449219 199.121094 L 244.554688 199.410156 L 244.378906 199.507812 L 243.757812 199.640625 L 243.628906 199.636719 L 243.535156 199.695312 L 243.378906 199.945312 L 243.324219 200.078125 L 243.238281 200.449219 L 243.113281 200.570312 L 242.820312 200.746094 L 242.707031 200.886719 L 242.695312 201.023438 L 242.742188 201.15625 L 242.773438 201.3125 L 242.699219 201.515625 L 242.878906 201.585938 L 242.9375 201.597656 L 243.234375 201.839844 L 243.472656 201.988281 L 243.679688 201.976562 L 243.851562 201.882812 L 244.011719 201.757812 L 244.183594 201.664062 L 244.746094 201.5625 L 244.910156 201.589844 L 245.042969 201.648438 L 245.09375 201.671875 L 245.199219 201.683594 L 245.132812 202.121094 L 245.058594 202.082031 L 245.050781 201.96875 L 245.042969 201.9375 L 244.992188 201.9375 L 244.929688 201.964844 L 244.886719 202.003906 L 244.863281 202.105469 L 244.878906 202.1875 L 244.910156 202.261719 L 244.914062 202.324219 L 244.898438 202.449219 L 244.90625 202.582031 L 244.890625 202.722656 L 244.839844 202.816406 L 244.816406 202.863281 L 244.660156 202.917969 L 244.554688 202.78125 L 244.53125 202.75 L 244.394531 202.5 L 244.214844 202.320312 L 243.867188 202.359375 L 243.515625 202.609375 L 243.378906 202.925781 L 243.363281 203.015625 L 243.042969 203.074219 L 243.007812 203.078125 L 242.265625 203.074219 L 241.828125 202.949219 L 241.714844 202.867188 L 241.632812 202.691406 L 241.570312 202.511719 L 241.507812 202.433594 L 241.375 202.417969 L 241.074219 202.316406 L 240.863281 202.316406 L 240.238281 202.433594 L 240.179688 202.472656 L 240.121094 202.5625 L 240.042969 202.65625 L 239.832031 202.722656 L 239.578125 202.871094 L 239.484375 202.949219 L 239.386719 203.070312 L 239.339844 203.164062 L 239.289062 203.242188 L 239.175781 203.328125 L 238.65625 203.453125 L 237.148438 203.453125 L 237.117188 203.375 L 237.09375 203.199219 L 237.054688 203.027344 L 236.984375 202.949219 L 236.238281 202.898438 L 236.074219 202.808594 L 235.863281 203.164062 L 235.679688 203.402344 L 235.460938 203.539062 L 235.007812 203.640625 L 234.496094 203.753906 L 234.242188 203.71875 L 234.074219 203.621094 L 233.644531 203.375 L 233.675781 203.375 L 233.945312 203.378906 L 234.070312 203.25 L 234.222656 202.785156 L 233.960938 202.816406 L 233.371094 203.007812 L 233.417969 202.820312 L 233.445312 202.753906 L 233.417969 202.578125 L 233.359375 202.480469 L 233.285156 202.410156 L 233.214844 202.316406 L 232.953125 201.753906 L 232.796875 201.519531 L 232.625 201.421875 L 232.578125 201.335938 L 232.542969 201.140625 L 232.511719 200.742188 L 232.550781 200.628906 L 232.742188 200.410156 L 232.8125 200.289062 L 232.816406 199.988281 L 232.671875 199.339844 L 232.703125 199.082031 L 232.871094 198.484375 L 232.933594 198.394531 L 233.089844 198.304688 L 233.117188 198.097656 L 233.054688 197.753906 L 233.058594 197.671875 L 233.042969 197.578125 L 233.054688 197.5 L 233.089844 197.421875 L 233.167969 197.339844 L 233.214844 197.25 L 233.289062 197.0625 L 233.308594 196.980469 L 233.292969 196.679688 L 233.355469 196.433594 L 233.664062 196.082031 L 233.777344 195.863281 L 233.75 195.285156 L 233.25 194.339844 L 233.214844 193.578125 L 233.289062 193.21875 L 233.363281 192.9375 L 233.449219 192.773438 L 233.527344 192.660156 L 233.585938 192.515625 L 233.609375 192.25 L 233.6875 192.023438 L 234.417969 190.929688 L 234.539062 190.660156 L 234.613281 190.347656 L 234.636719 189.972656 L 234.71875 189.585938 L 234.90625 189.421875 L 235.117188 189.296875 L 235.277344 189.027344 L 235.292969 188.769531 L 235.234375 188.523438 L 235.15625 188.285156 L 235.121094 188.0625 L 235.132812 187.820312 L 235.21875 187.332031 L 235.277344 187.125 L 235.359375 186.949219 L 235.433594 186.828125 L 235.492188 186.648438 L 235.515625 186.296875 L 235.574219 186.128906 L 235.714844 185.980469 L 236.003906 185.738281 L 236.003906 185.609375 L 235.867188 185.21875 L 235.867188 184.574219 L 235.96875 183.972656 L 236.457031 183.164062 L 236.589844 183.0625 L 236.78125 182.996094 L 236.960938 182.835938 L 237.277344 182.433594 L 237.414062 182.339844 L 237.566406 182.183594 L 237.691406 182.007812 L 237.742188 181.859375 L 237.757812 181.507812 L 237.820312 181.34375 L 237.949219 181.296875 L 238.277344 181.292969 L 238.363281 181.257812 L 238.429688 181.199219 L 238.457031 181.097656 L 238.480469 180.921875 L 238.535156 180.824219 L 238.589844 180.769531 L 238.613281 180.722656 L 238.714844 180.71875 L 239.140625 180.480469 L 239.210938 180.414062 L 239.355469 180.160156 L 239.882812 178.636719 L 240.242188 177.917969 L 240.480469 177.628906 L 240.484375 177.625 L 240.351562 177.492188 L 239.210938 177.242188 L 237.375 176.214844 L 237.167969 176.191406 L 236.507812 176.261719 L 235.542969 175.96875 L 235.414062 176.003906 L 235.144531 176.160156 L 235 176.199219 L 234.890625 176.183594 L 234.644531 176.089844 L 234.515625 176.066406 L 234.371094 176.101562 L 234.234375 176.160156 L 234.097656 176.199219 L 234.050781 176.1875 L 233.9375 176.160156 L 233.828125 176.0625 L 233.714844 175.824219 L 233.632812 175.714844 L 233.375 175.574219 L 232.867188 175.480469 L 232.613281 175.3125 L 232.460938 175.109375 L 232.199219 174.664062 L 232.039062 174.488281 L 232.058594 174.425781 L 232.085938 174.382812 L 232.171875 174.328125 L 232.097656 174.058594 L 231.886719 173.980469 L 231.386719 173.945312 L 231.335938 173.738281 L 231.109375 173.71875 L 230.886719 173.789062 L 230.839844 173.804688 L 230.644531 173.917969 L 230.59375 174.007812 L 230.507812 174.277344 L 230.449219 174.378906 L 230.363281 174.421875 L 230.125 174.453125 L 230.023438 174.492188 L 229.949219 174.585938 L 229.828125 174.84375 L 229.757812 174.917969 L 229.6875 174.90625 L 229.375 174.753906 L 228.375 174.746094 L 228.195312 174.679688 L 228.011719 174.582031 L 227.570312 174.242188 L 227.503906 174.234375 L 227.398438 174.34375 L 227.410156 174.445312 L 227.445312 174.542969 L 227.429688 174.636719 L 227.074219 174.871094 L 226.816406 174.660156 L 226.683594 174.152344 L 226.691406 173.5 L 226.441406 173.488281 L 225.714844 173.058594 L 225.589844 173.039062 L 225.25 173.074219 L 224.765625 172.960938 L 224.652344 172.988281 L 224.585938 173.246094 L 224.671875 173.542969 L 224.714844 173.851562 L 224.515625 174.128906 L 224.367188 174.164062 L 223.917969 173.988281 L 223.402344 173.984375 L 223.265625 173.921875 L 223.117188 173.664062 L 223.148438 173.4375 L 223.207031 173.203125 L 223.132812 172.910156 L 223.085938 172.914062 L 222.933594 173.019531 L 222.878906 173.023438 L 222.847656 172.960938 L 222.828125 172.8125 L 222.8125 172.773438 L 222.777344 172.695312 L 222.683594 172.351562 L 222.636719 172.300781 L 222.476562 172.238281 L 222.414062 172.1875 L 222.398438 172.113281 L 222.425781 171.925781 L 222.40625 171.847656 L 221.636719 171.074219 L 221.441406 170.828125 L 221.367188 170.613281 L 221.433594 170.445312 L 221.636719 170.433594 L 221.6875 170.285156 L 221.648438 170.175781 L 221.085938 169.550781 L 221.007812 169.429688 L 221.027344 169.421875 L 221.027344 169.316406 L 220.996094 169.164062 L 220.921875 169.011719 L 220.722656 168.8125 L 219.660156 168.257812 L 219.535156 168.234375 L 219.4375 168.273438 L 219.21875 168.433594 L 219.09375 168.457031 L 218.996094 168.445312 L 218.996094 168.308594 L 218.960938 167.75 L 219.035156 167.152344 L 219.058594 166.976562 L 219.058594 166.390625 L 219.125 166.1875 L 219.300781 165.902344 L 219.601562 165.515625 L 219.71875 165.265625 L 219.804688 165.132812 L 219.835938 165.050781 L 219.828125 164.929688 L 219.757812 164.855469 L 219.683594 164.804688 L 219.660156 164.742188 L 219.839844 164.480469 L 220.691406 163.910156 L 220.667969 163.871094 L 220.589844 163.777344 L 220.628906 163.6875 L 220.683594 163.660156 L 220.785156 163.699219 L 220.703125 163.585938 L 220.648438 163.453125 L 220.621094 163.300781 L 220.628906 163.136719 L 220.742188 163.035156 L 220.746094 162.964844 L 220.714844 162.882812 L 220.714844 162.75 L 220.769531 162.347656 L 220.789062 162.335938 L 220.789062 162.179688 L 220.8125 162.15625 L 220.816406 162.160156 L 220.753906 162.089844 L 220.710938 162.085938 L 220.351562 161.976562 L 219.796875 161.976562 L 219.59375 161.917969 L 219.398438 161.789062 L 219.066406 161.464844 L 218.871094 161.335938 L 218.769531 161.332031 L 218.59375 161.441406 L 218.5 161.433594 L 218.488281 161.371094 L 218.417969 161.179688 L 218.375 161.050781 L 218.316406 160.949219 L 218.148438 160.839844 L 217.757812 160.65625 L 217.574219 160.46875 L 217.195312 159.523438 L 216.996094 159.191406 L 216.871094 159.445312 L 216.78125 159.285156 L 216.601562 158.765625 L 216.402344 158.453125 L 216.351562 158.300781 L 216.386719 158.097656 L 216.3125 157.710938 L 216.238281 157.558594 L 216.113281 157.484375 L 216.21875 157.269531 L 216.261719 157.210938 L 216.238281 157.207031 L 216.167969 157.210938 L 216.148438 157.199219 L 216.21875 156.679688 L 216.277344 156.425781 L 216.355469 156.15625 L 216.460938 156.03125 L 216.496094 155.90625 L 216.453125 155.792969 L 216.335938 155.695312 L 216.363281 155.605469 L 216.402344 155.398438 L 216.421875 155.335938 L 216.523438 155.273438 L 216.753906 155.253906 L 216.839844 155.199219 L 216.910156 155.023438 L 216.914062 154.816406 L 216.851562 154.605469 L 216.695312 154.429688 L 216.816406 154.269531 L 217.078125 154.078125 L 217.191406 153.898438 L 217.433594 153.78125 L 217.929688 153.640625 L 218.144531 153.441406 L 218.09375 153.277344 L 218.117188 153.089844 L 218.195312 152.914062 L 218.308594 152.769531 L 218.464844 152.675781 L 218.59375 152.6875 L 218.726562 152.742188 L 218.882812 152.769531 L 219.191406 152.710938 L 219.335938 152.554688 L 219.320312 152.414062 L 219.3125 152.296875 L 218.910156 151.582031 L 218.894531 151.363281 L 218.972656 151.117188 L 219.054688 150.679688 L 219.0625 150.375 L 219.019531 150.308594 L 218.9375 150.292969 L 218.835938 150.125 L 218.773438 149.941406 L 218.742188 149.773438 L 218.769531 149.625 L 218.898438 149.496094 L 218.6875 149.484375 L 218.1875 149.367188 L 218.007812 149.28125 L 217.984375 149.253906 L 217.957031 149.246094 L 217.925781 149.253906 L 217.902344 149.28125 L 217.511719 149.402344 L 217.394531 149.398438 L 217.304688 149.324219 L 217.203125 149.113281 L 217.109375 149.023438 L 217.203125 148.863281 L 217.066406 148.855469 L 216.976562 148.8125 L 216.960938 148.730469 L 217.050781 148.585938 L 216.855469 148.339844 L 217.070312 148 L 217.4375 147.691406 L 217.695312 147.535156 L 217.695312 147.46875 L 217.824219 147.304688 L 217.90625 147.140625 L 217.882812 147.03125 L 217.082031 147.011719 L 216.84375 146.882812 L 216.707031 146.617188 L 216.863281 146.519531 L 216.15625 145.425781 L 215.933594 145.203125 L 215.742188 145.183594 L 215.28125 145.3125 L 215.128906 145.292969 L 215.085938 145.136719 L 215.128906 144.945312 L 215.121094 144.765625 L 214.929688 144.664062 L 214.910156 144.628906 L 214.910156 144.597656 L 214.917969 144.5625 L 214.9375 144.527344 L 214.960938 144.289062 L 214.886719 144.175781 L 214.773438 144.09375 L 214.683594 143.9375 L 214.632812 143.703125 L 214.808594 143.746094 L 214.976562 143.589844 L 215.039062 143.371094 L 215.011719 143.199219 L 215 143.039062 L 215.101562 142.855469 L 215.261719 142.765625 L 215.523438 142.785156 L 215.652344 142.628906 L 215.722656 142.441406 L 215.726562 142.292969 L 215.628906 141.914062 L 215.652344 141.789062 L 215.710938 141.691406 L 215.734375 141.617188 L 215.355469 141.484375 L 215.082031 141.3125 L 214.996094 141.210938 L 214.964844 141.066406 L 214.949219 140.800781 L 214.992188 140.644531 L 215.0625 140.488281 L 215.039062 140.394531 L 214.625 140.445312 L 214.320312 140.34375 L 214.160156 140.320312 L 214 140.367188 L 213.703125 140.515625 L 213.542969 140.546875 L 213.53125 140.082031 L 213.351562 139.550781 L 213.285156 139.117188 L 213.613281 138.945312 L 213.773438 139.035156 L 213.910156 139.21875 L 214.0625 139.359375 L 214.277344 139.335938 L 214.417969 139.179688 L 214.640625 138.707031 L 214.796875 138.527344 L 215.871094 137.683594 L 216.527344 137.324219 L 216.703125 137.09375 L 216.457031 136.867188 L 216.722656 136.648438 L 216.816406 136.597656 L 216.550781 136.503906 L 215.972656 136.902344 L 215.699219 136.75 L 215.617188 136.410156 L 215.652344 135.996094 L 215.75 135.628906 L 215.871094 135.425781 L 216.113281 135.125 L 216.707031 134.03125 L 216.828125 133.910156 L 217.125 133.707031 L 217.238281 133.542969 L 217.300781 133.3125 L 217.335938 132.90625 L 217.402344 132.746094 L 217.226562 132.539062 L 217.242188 132.195312 L 217.332031 131.804688 L 217.375 131.4375 L 217.316406 131.101562 L 217.234375 130.496094 L 216.769531 129.960938 L 215.996094 128.90625 L 215.949219 128.679688 L 216.007812 128.414062 L 216.144531 128 L 215.359375 127.660156 L 215.09375 127.324219 L 215.25 126.800781 L 215.136719 126.683594 L 214.875 126.488281 L 214.742188 126.425781 L 214.40625 126.433594 L 214.292969 126.386719 L 214.300781 126.1875 L 214.371094 126.121094 L 214.558594 125.933594 L 214.578125 125.5625 L 214.425781 125.203125 L 214.164062 125.003906 L 214.203125 124.839844 L 214.394531 124.703125 L 214.867188 124.621094 L 215.089844 124.527344 L 215.332031 124.351562 L 215.496094 124.261719 L 215.96875 124.136719 L 216.34375 124.234375 L 216.617188 124.304688 L 216.804688 124.351562 L 216.648438 124.109375 L 216.214844 123.660156 L 216.074219 123.550781 L 216.46875 123.339844 L 216.839844 123.515625 L 217.210938 123.8125 L 217.605469 123.972656 L 217.964844 123.894531 L 218.0625 123.90625 L 218.144531 123.984375 L 218.273438 124.210938 L 218.324219 124.273438 L 218.769531 124.339844 L 218.957031 124.449219 L 218.992188 124.738281 L 219.425781 124.617188 L 219.472656 124.433594 L 219.378906 124.015625 L 220.121094 124.234375 L 220.359375 124.234375 L 220.550781 124.148438 L 221.121094 123.714844 L 222.273438 123.328125 L 223.296875 123.292969 L 223.613281 123.125 L 223.882812 122.808594 L 224.144531 122.335938 L 224.242188 122.234375 L 224.328125 122.21875 L 224.386719 122.160156 L 224.398438 121.933594 L 224.371094 121.8125 L 224.308594 121.722656 L 224.011719 121.410156 L 223.253906 120.992188 L 223 120.917969 L 222.816406 120.789062 L 222.792969 120.507812 L 222.871094 120.316406 L 222.976562 120.265625 L 223.097656 120.257812 L 223.238281 120.191406 L 223.332031 120.074219 L 223.425781 119.839844 L 223.484375 119.734375 L 223.683594 119.53125 L 223.867188 119.429688 L 223.933594 119.421875 L 224.617188 119.347656 L 224.765625 119.214844 L 225.019531 118.703125 L 225.246094 118.46875 L 225.742188 118.257812 L 225.972656 118.054688 L 226.246094 117.621094 L 226.371094 117.480469 L 226.886719 117.171875 L 226.917969 117.078125 L 226.886719 117.023438 L 226.820312 116.902344 L 226.71875 116.507812 L 226.726562 116.167969 L 226.808594 115.890625 L 227.039062 115.363281 L 227.140625 114.6875 L 226.976562 114.214844 L 226.269531 113.09375 L 226.199219 113.128906 L 226.125 113.25 L 226.019531 113.351562 L 225.730469 113.433594 L 225.425781 113.453125 L 225.097656 113.402344 L 224.5 113.175781 L 223.582031 113.050781 L 223.277344 112.90625 L 223.046875 112.644531 L 222.976562 112.371094 L 222.960938 112.042969 L 222.917969 111.714844 L 222.777344 111.425781 L 222.96875 111.410156 L 223.613281 111.09375 L 223.230469 110.777344 L 223.152344 110.660156 L 223.148438 110.507812 L 223.199219 110.351562 L 223.222656 110.1875 L 223.125 109.996094 L 223.324219 109.851562 L 223.535156 109.707031 L 223.921875 109.589844 L 225.019531 109.574219 L 225.636719 109.753906 L 226.207031 109.671875 L 226.382812 109.742188 L 226.792969 109.867188 L 227.003906 109.472656 L 227.089844 108.820312 L 227.199219 106.828125 L 227.296875 106.207031 L 227.417969 105.890625 L 227.503906 105.648438 L 228.457031 104.203125 L 228.707031 103.582031 L 228.8125 102.996094 L 228.832031 102.332031 L 228.722656 101.007812 L 228.679688 100.847656 L 228.625 100.75 L 228.582031 100.632812 L 228.574219 100.414062 L 228.601562 100.265625 L 228.765625 99.859375 L 228.84375 99.539062 L 228.878906 99.25 L 228.867188 98.957031 L 228.835938 98.429688 L 228.949219 98.371094 L 229.082031 98.234375 L 229.183594 98.101562 L 229.285156 97.902344 L 229.324219 97.683594 L 229.238281 97.476562 L 229.53125 97.054688 L 229.6875 96.976562 L 229.957031 96.972656 L 230.207031 97.035156 L 230.609375 97.277344 L 230.828125 97.363281 L 230.546875 96.972656 L 230.089844 96.808594 L 227.453125 96.71875 L 227.023438 96.515625 L 226.855469 96.003906 L 226.851562 94.632812 L 226.902344 94.324219 L 227.125 93.761719 L 227.175781 93.488281 L 227.273438 93.320312 L 227.5 93.320312 L 227.964844 93.417969 L 228.027344 93.269531 L 228.140625 93.214844 L 228.222656 93.03125 L 228.203125 92.800781 L 228.097656 92.667969 L 227.761719 92.503906 L 227.609375 92.359375 L 227.585938 92.113281 L 227.75 91.910156 L 228.121094 91.664062 L 228.542969 91.21875 L 228.769531 91.070312 L 229.199219 90.644531 L 230.113281 90.304688 L 231.894531 90.113281 L 232.019531 90.195312 L 232.144531 90.355469 L 232.417969 90.417969 L 234.125 90.082031 L 237.601562 89.621094 L 238.527344 89.875 L 238.527344 90.011719 L 238.453125 90.53125 L 238.777344 91.203125 L 239.253906 91.785156 L 239.644531 92.042969 L 239.644531 92.15625 L 239.546875 92.390625 L 239.722656 92.472656 L 239.980469 92.542969 L 240.109375 92.738281 L 240.074219 93.070312 L 239.964844 93.238281 L 239.714844 93.417969 L 239.503906 93.523438 L 239.050781 93.5625 L 238.847656 93.683594 L 239.058594 94.296875 L 239.164062 94.53125 L 239.320312 94.691406 L 239.46875 94.625 L 239.601562 94.570312 L 239.792969 94.578125 L 239.929688 94.648438 L 240.152344 94.890625 L 240.234375 94.945312 L 240.328125 95.023438 L 240.421875 95.195312 L 240.542969 95.371094 L 240.710938 95.449219 L 240.90625 95.441406 L 241.046875 95.414062 L 241.171875 95.339844 L 241.3125 95.207031 L 241.558594 94.820312 L 241.816406 94.183594 L 241.878906 93.550781 L 241.542969 93.175781 L 241.085938 93.292969 L 240.84375 93.253906 L 240.867188 92.984375 L 240.964844 92.679688 L 241.046875 92.050781 L 241.144531 91.789062 L 241.300781 91.636719 L 241.496094 91.558594 L 241.980469 91.539062 L 242.203125 91.636719 L 242.375 91.863281 L 242.515625 92.113281 L 242.65625 92.292969 L 243.125 92.523438 L 244.113281 92.707031 L 244.5625 92.914062 L 244.5625 93.050781 L 244.285156 93.277344 L 244.027344 93.574219 L 243.839844 93.972656 L 243.769531 94.507812 L 243.785156 95.546875 L 243.851562 96.003906 L 244.007812 96.34375 L 244.042969 95.886719 L 243.917969 94.730469 L 243.929688 94.1875 L 244.105469 93.785156 L 244.371094 93.605469 L 244.613281 93.382812 L 244.71875 92.855469 L 244.660156 92.765625 L 244.363281 92.042969 L 244.277344 91.933594 L 244.15625 91.683594 L 244.054688 91.40625 L 243.972656 91.054688 L 243.808594 90.636719 L 243.769531 90.328125 L 243.796875 90.015625 L 243.867188 89.746094 L 244.300781 88.71875 L 244.609375 87.605469 L 244.804688 87.113281 L 244.972656 86.875 L 245.199219 86.671875 L 245.453125 86.527344 L 245.714844 86.46875 L 245.957031 86.484375 L 246.09375 86.542969 L 246.378906 86.847656 L 246.792969 87.175781 L 247.230469 87.394531 L 248.136719 87.605469 L 248.632812 87.589844 L 249.472656 87.394531 L 249.9375 87.429688 L 250.15625 87.1875 L 251.078125 86.972656 L 251.992188 86.980469 L 252.191406 86.847656 L 252.347656 86.960938 L 252.539062 86.992188 L 252.929688 86.972656 L 253.03125 87.039062 L 253.285156 87.355469 L 254.414062 89.242188 L 254.878906 89.761719 L 255.207031 90.011719 L 255.363281 90.207031 L 255.523438 90.765625 L 256.320312 91.878906 L 256.496094 92.035156 L 256.710938 92.125 L 256.988281 92.15625 L 257.132812 92.222656 L 257.820312 92.671875 L 258.601562 92.839844 L 259.238281 92.972656 L 259.386719 92.914062 L 259.246094 92.671875 L 258.808594 92.433594 L 257.769531 92.316406 L 257.347656 92.15625 L 256.511719 91.640625 L 256.128906 91.234375 L 255.996094 90.644531 L 255.960938 90.140625 L 255.914062 89.820312 L 255.800781 89.71875 L 255.253906 89.429688 L 255.082031 89.371094 L 254.796875 89.125 L 254.527344 88.570312 L 254.34375 87.972656 L 254.328125 87.605469 L 253.90625 87.445312 L 253.175781 86.847656 L 252.738281 86.597656 L 252.304688 86.5 L 250.832031 86.46875 L 250.390625 86.277344 L 250.097656 86.199219 L 249.960938 86.277344 L 249.839844 86.46875 L 249.570312 86.382812 L 249.164062 86.089844 L 248.777344 85.640625 L 247.820312 83.808594 L 248.265625 83.613281 L 248.484375 83.597656 L 248.761719 83.671875 L 249.214844 83.960938 L 249.464844 84.039062 L 249.71875 83.925781 L 249.804688 83.722656 L 249.902344 83.355469 L 249.964844 82.960938 L 249.960938 82.675781 L 249.828125 82.484375 L 249.613281 82.304688 L 249.453125 82.117188 L 249.488281 81.90625 L 249.488281 81.789062 L 249.203125 81.710938 L 248.800781 81.777344 L 248.421875 81.949219 L 248.214844 82.167969 L 248.136719 82.167969 L 247.820312 81.652344 L 247.613281 81.238281 L 247.582031 81.148438 L 247.675781 80.777344 L 247.851562 80.460938 L 247.972656 80.167969 L 247.890625 79.886719 L 247.890625 79.761719 L 248.035156 79.660156 L 248.523438 79.527344 L 248.722656 79.507812 L 248.847656 79.414062 L 249.027344 79.1875 L 249.207031 78.890625 L 249.324219 78.613281 L 249.058594 78.664062 L 248.621094 79.015625 L 248.371094 79.121094 L 248.394531 79.058594 L 248.429688 78.925781 L 248.453125 78.867188 L 248.101562 78.90625 L 247.496094 79.078125 L 247.140625 79.121094 L 246.726562 79.050781 L 246.546875 79.121094 L 246.160156 79.46875 L 246.023438 79.507812 L 245.714844 79.40625 L 245.386719 79.121094 L 245.148438 78.714844 L 245.113281 78.234375 L 245.277344 78.046875 L 245.59375 77.910156 L 245.949219 77.84375 L 246.222656 77.855469 L 246.222656 77.730469 L 246.015625 77.683594 L 245.855469 77.542969 L 245.703125 77.5 L 245.519531 77.730469 L 245.417969 77.527344 L 245.453125 77.320312 L 245.5625 77.125 L 245.675781 76.972656 L 245.925781 77.078125 L 246.863281 76.835938 L 248.136719 76.835938 L 248.429688 76.761719 L 248.675781 76.621094 L 249.164062 76.21875 L 249.609375 76.011719 L 249.804688 75.875 L 249.882812 75.574219 L 249.882812 75.128906 L 249.589844 74.703125 L 248.644531 73.753906 L 248.507812 73.558594 L 248.453125 73.363281 L 248.34375 73.277344 L 248.105469 73.285156 L 247.863281 73.347656 L 247.730469 73.433594 L 247.652344 73.292969 L 248.050781 73.039062 L 247.644531 72.035156 L 247.496094 71.78125 L 247.164062 71.585938 L 246.535156 71.078125 L 246.144531 70.898438 L 246.144531 70.769531 L 246.207031 70.4375 L 246.058594 70.0625 L 245.832031 69.691406 L 245.675781 69.371094 L 245.609375 68.886719 L 245.664062 68.457031 L 245.820312 67.921875 L 246.226562 68.039062 L 246.652344 68.058594 L 247.441406 67.785156 L 247.714844 67.746094 L 248.640625 67.894531 L 249.550781 68.234375 L 252.007812 68.769531 L 252.199219 68.929688 L 252.253906 69.117188 L 252.289062 69.375 L 252.371094 69.59375 L 252.578125 69.667969 L 253.421875 69.671875 L 253.597656 69.644531 L 253.707031 69.535156 L 253.875 69.492188 L 254 69.386719 L 254.210938 69.34375 L 254.445312 69.546875 L 254.640625 69.566406 L 254.8125 69.515625 L 254.816406 69.511719 L 254.980469 69.511719 L 255.667969 69.1875 L 255.890625 68.933594 L 256.171875 68.832031 L 256.316406 68.589844 L 256.46875 68.476562 L 256.503906 69.144531 L 257.066406 69.335938 L 257.777344 69.371094 L 258.261719 69.566406 L 258.460938 69.710938 L 258.761719 69.828125 L 259.039062 70.007812 L 259.160156 70.328125 L 259.292969 70.5 L 259.59375 70.453125 L 260.121094 70.265625 L 260.078125 69.882812 L 260.351562 69.863281 L 260.726562 70.082031 L 260.992188 70.390625 L 261.152344 71.023438 L 261.222656 71.171875 L 261.328125 71.308594 L 261.546875 71.527344 L 261.398438 71.632812 L 261.242188 71.613281 L 261.101562 71.554688 L 260.992188 71.527344 L 261 71.566406 L 260.710938 71.777344 L 260.675781 71.78125 L 260.601562 71.828125 L 260.550781 71.820312 L 260.523438 71.863281 L 260.515625 72.03125 L 260.6875 72.042969 L 260.988281 71.957031 L 261.292969 71.941406 L 261.464844 72.160156 L 261.589844 72.058594 L 261.722656 72.050781 L 261.785156 72.164062 L 261.703125 72.421875 L 261.761719 72.679688 L 261.769531 73.042969 L 261.703125 73.808594 L 261.644531 74.136719 L 261.566406 74.398438 L 261.457031 74.609375 L 261.308594 74.808594 L 260.9375 75.128906 L 260.46875 75.371094 L 259.96875 75.523438 L 259.480469 75.574219 L 259.480469 75.703125 L 259.984375 75.945312 L 262.777344 75.324219 L 262.996094 75.394531 L 263.695312 75.964844 L 263.464844 76.179688 L 263.464844 76.382812 L 263.554688 76.609375 L 263.617188 76.90625 L 263.550781 77.152344 L 263.386719 77.382812 L 263.175781 77.546875 L 262.976562 77.605469 L 263.007812 77.644531 L 263.046875 77.675781 L 263.050781 77.734375 L 262.976562 77.855469 L 263.101562 77.984375 L 263.136719 78.136719 L 263.089844 78.3125 L 262.976562 78.488281 L 263.230469 78.402344 L 263.421875 78.179688 L 263.695312 77.605469 L 263.851562 76.992188 L 263.933594 76.835938 L 264.050781 76.765625 L 264.488281 76.722656 L 264.644531 76.636719 L 264.722656 76.535156 L 264.78125 76.433594 L 264.890625 76.332031 L 265.023438 76.292969 L 265.515625 76.332031 L 265.769531 76.449219 L 266.46875 76.972656 L 268.296875 77.730469 L 269.328125 78.640625 L 269.804688 78.75 L 270.335938 78.660156 L 270.726562 78.433594 L 271.390625 77.855469 L 271.769531 77.628906 L 272.167969 77.46875 L 273.136719 77.351562 L 273.136719 77.476562 L 272.929688 77.488281 L 272.640625 77.492188 L 272.839844 77.574219 L 273.039062 77.515625 L 273.3125 77.691406 L 274.125 77.222656 L 274.488281 77.351562 L 274.058594 77.804688 L 273.933594 77.984375 L 273.867188 77.929688 L 273.691406 77.855469 L 273.816406 78.160156 L 273.921875 78.894531 L 274.011719 79.246094 L 273.929688 79.476562 L 273.933594 79.792969 L 274.011719 80.324219 L 273.964844 80.640625 L 273.851562 80.808594 L 273.742188 80.925781 L 273.691406 81.085938 L 272.34375 81.90625 L 271.878906 82.464844 L 271.675781 82.589844 L 271.207031 82.738281 L 271.117188 82.738281 L 271.019531 82.820312 L 270.941406 82.765625 L 270.859375 82.683594 L 270.757812 82.675781 L 270.664062 82.730469 L 270.617188 82.777344 L 270.171875 83.433594 L 270.054688 83.554688 L 270.054688 83.671875 L 270.207031 84.03125 L 270.375 84.296875 L 270.597656 84.472656 L 270.914062 84.566406 L 271.363281 84.523438 L 271.476562 84.566406 L 271.558594 84.757812 L 271.570312 84.980469 L 271.613281 85.148438 L 271.785156 85.195312 L 271.832031 85.199219 L 271.964844 85.207031 L 272.023438 85.195312 L 272.171875 85.085938 L 272.511719 84.75 L 272.703125 84.679688 L 272.921875 84.636719 L 273.539062 84.324219 L 274.945312 84.148438 L 275.046875 84.1875 L 275.128906 84.292969 L 275.203125 84.550781 L 275.285156 84.679688 L 275.699219 84.789062 L 275.761719 84.882812 L 275.707031 85.300781 L 275.734375 85.496094 L 275.878906 85.574219 L 276.226562 85.597656 L 276.320312 85.574219 L 276.789062 85.195312 L 276.878906 85.253906 L 276.996094 85.515625 L 277.070312 85.574219 L 277.550781 85.574219 L 277.558594 85.632812 L 278 86.160156 L 278.089844 86.214844 L 278.222656 86.214844 L 278.234375 86.019531 L 278.351562 85.722656 L 278.441406 85.355469 L 278.390625 85.058594 L 278.476562 84.921875 L 278.589844 84.839844 L 278.6875 84.816406 L 278.664062 84.734375 L 278.636719 84.527344 L 278.617188 84.4375 L 279.011719 84.0625 L 279.011719 83.925781 L 278.933594 83.925781 L 278.933594 83.808594 L 279.226562 83.925781 L 279.328125 83.925781 L 279.5625 83.761719 L 279.769531 83.269531 L 279.925781 83.167969 L 280.019531 83.136719 L 280.09375 83.054688 L 280.152344 82.9375 L 280.203125 82.800781 L 280.210938 82.707031 L 280.125 82.644531 L 280.125 82.546875 L 280.164062 82.453125 L 280.210938 82.390625 L 280.253906 82.339844 L 280.539062 81.855469 L 280.910156 81.613281 L 281.363281 81.554688 L 282.328125 81.714844 L 285.089844 81.160156 L 285.523438 80.898438 L 285.585938 81.425781 L 285.539062 81.9375 L 285.566406 82.375 L 285.835938 82.675781 L 285.722656 82.449219 L 285.667969 81.96875 L 285.605469 81.789062 L 285.726562 81.574219 L 286.058594 81.398438 L 286.160156 81.148438 L 286.027344 81.136719 L 285.902344 81.15625 L 285.785156 81.203125 L 285.675781 81.273438 L 285.765625 81.101562 L 286.160156 80.617188 L 286.394531 80.417969 L 286.667969 79.984375 L 286.832031 79.886719 L 286.984375 79.847656 L 287.855469 79.398438 L 288.296875 79.054688 L 288.46875 78.867188 L 288.882812 78.109375 L 289.582031 77.167969 L 289.65625 76.992188 L 290.136719 76.21875 L 290.320312 75.734375 L 290.453125 75.574219 L 290.6875 75.460938 L 290.6875 75.574219 L 290.609375 75.574219 L 290.855469 75.945312 L 291.355469 76.136719 L 293.992188 76.136719 L 294.425781 76.332031 L 294.695312 76.191406 L 295.027344 76.265625 L 295.175781 76.472656 L 294.886719 76.722656 L 294.589844 76.78125 L 293.351562 76.683594 L 292.855469 76.507812 L 292.550781 76.46875 L 292.460938 76.507812 L 292.335938 76.675781 L 292.269531 76.722656 L 292.035156 76.722656 L 291.734375 76.667969 L 291.621094 76.726562 L 291.550781 76.972656 L 291.480469 76.835938 L 291.417969 76.871094 L 291.316406 76.953125 L 291.242188 76.972656 L 291.261719 77.132812 L 291.3125 77.203125 L 291.386719 77.226562 L 291.480469 77.238281 L 291.4375 77.25 L 291.40625 77.25 L 291.390625 77.273438 L 291.394531 77.351562 L 291.171875 77.238281 L 290.921875 77.261719 L 290.710938 77.394531 L 290.609375 77.605469 L 290.421875 77.382812 L 290.191406 77.277344 L 289.773438 77.238281 L 289.582031 77.324219 L 289.425781 77.535156 L 289.351562 77.820312 L 289.414062 78.109375 L 289.25 78.078125 L 289.183594 78.050781 L 289.101562 77.984375 L 289.019531 78.109375 L 289.097656 78.332031 L 289.039062 78.550781 L 288.894531 78.710938 L 288.703125 78.75 L 288.785156 79.003906 L 288.882812 79.199219 L 288.90625 79.363281 L 288.777344 79.507812 L 289.28125 79.835938 L 289.5625 79.90625 L 289.8125 79.761719 L 289.632812 79.765625 L 289.496094 79.703125 L 289.257812 79.507812 L 289.332031 79.292969 L 289.441406 79.132812 L 289.734375 78.867188 L 289.800781 78.824219 L 289.929688 78.785156 L 289.976562 78.75 L 290.011719 78.660156 L 290.023438 78.425781 L 290.050781 78.351562 L 290.246094 78.195312 L 290.996094 77.855469 L 290.839844 77.75 L 290.769531 77.730469 L 290.769531 77.605469 L 290.984375 77.53125 L 291.0625 77.535156 L 291.15625 77.605469 L 291.15625 77.476562 L 291.371094 77.660156 L 291.71875 77.574219 L 292.347656 77.238281 L 292.324219 77.175781 L 292.292969 77.039062 L 292.269531 76.972656 L 292.390625 76.890625 L 292.527344 76.839844 L 292.667969 76.820312 L 292.816406 76.835938 L 292.816406 76.972656 L 292.640625 77.015625 L 292.523438 77.164062 L 292.457031 77.375 L 292.429688 77.605469 L 292.574219 77.371094 L 292.625 77.246094 L 292.667969 77.097656 L 292.769531 77.277344 L 292.886719 77.4375 L 293.019531 77.496094 L 293.148438 77.351562 L 293.28125 77.464844 L 293.40625 77.460938 L 293.519531 77.375 L 293.621094 77.238281 L 293.652344 77.382812 L 293.710938 77.515625 L 293.78125 77.632812 L 293.980469 77.867188 L 294.023438 77.902344 L 294.066406 77.882812 L 294.183594 77.855469 L 294.40625 77.871094 L 294.523438 77.839844 L 294.652344 77.730469 L 294.75 77.582031 L 294.871094 77.28125 L 294.972656 77.097656 L 295.269531 76.828125 L 295.730469 76.550781 L 296.191406 76.390625 L 296.484375 76.46875 L 296.335938 76.601562 L 296.332031 76.824219 L 296.417969 77.058594 L 296.554688 77.238281 L 297.058594 77.480469 L 297.195312 77.605469 L 296.976562 77.96875 L 297.023438 78.253906 L 297.355469 78.75 L 297.386719 78.953125 L 297.386719 79.152344 L 297.417969 79.308594 L 297.546875 79.371094 L 298.066406 79.371094 L 298.066406 79.507812 L 297.957031 79.511719 L 297.878906 79.542969 L 297.75 79.625 L 298.128906 79.589844 L 298.734375 79.910156 L 299.136719 80.003906 L 299.433594 80.152344 L 299.816406 80.886719 L 300.128906 81.148438 L 299.949219 81.265625 L 299.8125 81.398438 L 300.101562 81.398438 L 300.535156 81.191406 L 300.761719 81.273438 L 300.671875 81.492188 L 300.617188 81.578125 L 300.523438 81.652344 L 300.660156 81.730469 L 300.746094 81.6875 L 300.824219 81.625 L 300.925781 81.652344 L 300.992188 81.746094 L 301.160156 82.167969 L 301.304688 82.441406 L 301.476562 82.664062 L 301.691406 82.796875 L 301.960938 82.800781 L 301.960938 82.675781 L 301.867188 82.589844 L 301.734375 82.378906 L 301.640625 82.296875 L 301.640625 82.167969 L 303.070312 81.90625 L 303.414062 81.757812 L 304.003906 81.378906 L 304.335938 81.273438 L 304.386719 81.371094 L 304.367188 81.453125 L 304.292969 81.511719 L 304.175781 81.539062 L 304.175781 81.652344 L 304.53125 81.824219 L 305.449219 82.546875 L 305.449219 82.675781 L 305.28125 82.945312 L 305.1875 83.300781 L 305.046875 83.625 L 304.730469 83.808594 L 304.871094 83.910156 L 305.207031 84.3125 L 305.328125 84.503906 L 305.394531 84.550781 L 305.722656 84.679688 L 305.804688 84.734375 L 305.855469 84.859375 L 305.890625 84.996094 L 305.925781 85.082031 L 305.9375 85.148438 L 305.921875 85.230469 L 305.917969 85.304688 L 305.964844 85.335938 L 306.128906 85.320312 L 306.167969 85.335938 L 306.230469 85.382812 L 306.300781 85.421875 L 306.375 85.449219 L 306.441406 85.460938 L 306.585938 85.535156 L 306.601562 85.710938 L 306.53125 85.917969 L 306.398438 86.089844 L 305.570312 86.738281 L 305.449219 86.972656 L 305.554688 87.199219 L 305.769531 87.300781 L 305.984375 87.347656 L 306.082031 87.414062 L 306.15625 87.617188 L 306.328125 87.851562 L 306.511719 88.007812 L 306.636719 87.984375 L 307.488281 88.65625 L 307.875 88.742188 L 308.0625 88.960938 L 308.105469 89.003906 L 308.386719 88.984375 L 308.46875 89.003906 L 308.761719 89.167969 L 308.902344 89.222656 L 309.832031 89.289062 L 310.160156 89.195312 L 310.296875 88.941406 L 310.386719 88.882812 L 310.570312 88.917969 L 310.738281 89.070312 L 310.769531 89.371094 L 310.679688 89.507812 L 310.136719 89.875 L 310.285156 89.957031 L 310.453125 90.011719 L 310.640625 90.035156 L 310.730469 90.023438 L 310.730469 90.027344 L 310.742188 90.546875 L 310.695312 90.832031 L 310.871094 91.195312 L 311.113281 91.914062 L 311.136719 92.097656 L 311.105469 92.773438 L 311.113281 93.179688 L 311.195312 93.5625 L 311.476562 93.976562 L 311.597656 94.363281 L 311.84375 94.753906 L 311.960938 95.710938 L 312.207031 96.785156 L 312.285156 97.132812 L 312.300781 97.289062 L 312.308594 97.625 L 312.34375 97.808594 L 312.414062 97.925781 L 312.59375 98.066406 L 312.636719 98.171875 L 312.789062 98.304688 L 312.488281 98.875 L 312.402344 98.996094 L 312.28125 99.058594 L 312.164062 99.222656 L 312.082031 99.449219 L 312.050781 99.695312 L 312.09375 99.996094 L 312.160156 100.257812 L 312.1875 100.523438 L 311.839844 101.570312 L 311.804688 101.726562 L 311.648438 102.058594 L 311.292969 102.417969 L 310.613281 102.941406 L 309.90625 103.296875 L 309.347656 103.699219 L 309.347656 103.8125 L 309.417969 104 L 309.558594 104.652344 L 309.582031 104.886719 L 309.535156 105.234375 L 309.417969 105.457031 L 309.109375 105.71875 L 309.242188 105.976562 L 309.441406 106.128906 L 309.6875 106.203125 L 309.941406 106.222656 L 310.175781 106.320312 L 310.554688 106.753906 L 310.871094 106.917969 L 312.101562 107.796875 L 312.28125 108 L 312.675781 108.757812 L 312.796875 108.871094 L 313.019531 108.96875 L 313.351562 109.414062 L 314.042969 109.679688 L 314.714844 110.414062 L 314.78125 110.484375 L 315.144531 110.773438 L 314.820312 111.4375 L 314.730469 111.867188 L 314.945312 112.058594 L 314.996094 112.253906 L 314.804688 112.6875 L 314.527344 113.121094 L 313.925781 113.640625 L 313.992188 114.371094 L 314.265625 115.179688 L 314.507812 115.714844 L 314.441406 116.050781 L 314.699219 116.339844 L 315.09375 116.535156 L 315.421875 116.609375 L 315.746094 116.75 L 315.925781 117.074219 L 315.921875 117.453125 L 315.695312 117.746094 L 315.695312 117.859375 L 315.863281 118.117188 L 315.820312 118.382812 L 315.695312 118.71875 L 315.625 119.195312 L 315.742188 119.460938 L 316.492188 120.015625 L 316.28125 120.277344 L 316.191406 120.433594 L 316.15625 120.601562 L 316.132812 120.769531 L 316.085938 120.945312 L 315.832031 121.390625 L 315.773438 121.570312 L 315.730469 122.699219 L 315.632812 123.058594 L 315.453125 123.394531 L 315.242188 123.675781 L 314.578125 124.34375 L 314.425781 124.664062 L 314.460938 125.054688 L 314.648438 125.34375 L 314.859375 125.488281 L 315.019531 125.699219 L 315.066406 126.1875 L 315.183594 126.65625 L 315.445312 126.960938 L 316.007812 127.425781 L 316.160156 127.746094 L 316.273438 128.214844 L 316.292969 128.699219 L 316.15625 129.070312 L 315.929688 129.425781 L 315.835938 129.785156 L 315.859375 129.917969 L 315.898438 130.113281 L 316.15625 130.378906 L 316.910156 130.632812 L 317.15625 130.804688 L 317.15625 130.808594 L 317.421875 130.957031 L 317.964844 131.117188 L 318.226562 131.242188 L 318.40625 131.386719 L 318.621094 131.609375 L 318.742188 131.863281 L 318.644531 132.09375 L 318.6875 132.582031 L 318.753906 133.363281 L 318.753906 133.382812 L 318.804688 133.714844 L 318.835938 133.839844 L 319.050781 134.21875 L 319.3125 134.527344 L 319.484375 134.890625 L 319.421875 135.425781 L 319.464844 135.480469 L 319.511719 135.535156 L 319.3125 135.925781 L 319.15625 136.417969 L 319.0625 136.933594 L 319.050781 137.402344 L 319.027344 137.640625 L 318.949219 137.761719 L 318.859375 137.847656 L 318.796875 137.976562 L 318.777344 138.15625 L 318.773438 138.511719 L 318.738281 138.726562 L 318.222656 140.042969 L 317.636719 141.445312 L 317.226562 141.90625 L 317.0625 142.179688 L 317.0625 142.523438 L 316.878906 143.019531 L 316.769531 143.234375 L 316.65625 143.363281 L 316.46875 143.414062 L 316.21875 143.40625 L 315.785156 143.308594 L 315.34375 142.96875 L 315.179688 142.875 L 314.777344 142.761719 L 314.71875 142.621094 L 314.761719 142.292969 L 314.957031 141.828125 L 315.023438 141.582031 L 314.960938 141.371094 L 314.820312 141.371094 L 314.179688 141.636719 L 314.046875 141.53125 L 314.113281 141.308594 L 314.25 141.042969 L 314.339844 140.820312 L 314.363281 140.542969 L 314.328125 140.359375 L 314.238281 140.214844 L 314.097656 140.042969 L 313.957031 139.929688 L 313.644531 139.851562 L 313.5 139.75 L 313.390625 139.597656 L 313.351562 139.488281 L 313.324219 139.378906 L 313.257812 139.222656 L 313.15625 139.476562 L 313.027344 139.546875 L 312.605469 139.519531 L 312.28125 139.664062 L 312.152344 139.664062 L 312.027344 139.59375 L 311.953125 139.492188 L 311.890625 139.390625 L 311.804688 139.3125 L 311.371094 139.167969 L 311.003906 139.226562 L 310.726562 139.511719 L 310.5625 140.042969 L 310.433594 140.230469 L 310.570312 140.320312 L 310.960938 140.375 L 311.191406 140.46875 L 311.175781 140.503906 L 311.074219 140.574219 L 311.066406 140.765625 L 311.359375 141.0625 L 311.789062 141.191406 L 312.097656 141.371094 L 312.027344 141.832031 L 311.6875 142.121094 L 310.777344 142.046875 L 310.363281 142.136719 L 310.238281 142.261719 L 310.023438 142.585938 L 309.882812 142.71875 L 308.078125 143.554688 L 307.855469 143.570312 L 307.429688 143.515625 L 307.203125 143.566406 L 307.082031 143.65625 L 306.902344 143.882812 L 306.785156 143.972656 L 306.636719 143.996094 L 306.527344 143.960938 L 306.425781 143.964844 L 306.320312 144.097656 L 306.273438 144.277344 L 306.285156 144.433594 L 306.3125 144.5625 L 306.308594 144.660156 L 306.230469 144.777344 L 306.160156 144.800781 L 306.089844 144.800781 L 305.757812 145.011719 L 305.546875 145.054688 L 305.015625 144.996094 L 304.765625 145.023438 L 304.324219 145.1875 L 304.101562 145.230469 L 303.0625 145.226562 L 302.535156 145.328125 L 302.0625 145.617188 L 302.195312 145.898438 L 302.148438 146.148438 L 301.996094 146.351562 L 301.804688 146.5 L 301.871094 146.648438 L 301.859375 146.757812 L 301.789062 146.847656 L 301.675781 146.914062 L 301.472656 147.167969 L 301.277344 147.347656 L 301.0625 147.402344 L 300.804688 147.273438 L 300.726562 147.175781 L 300.5625 146.898438 L 300.5 146.828125 L 300.359375 146.773438 L 300.328125 146.796875 L 300.320312 146.863281 L 300.25 146.941406 L 299.816406 147.253906 L 299.753906 147.371094 L 299.628906 147.746094 L 299.386719 147.871094 L 299.191406 147.785156 L 299.003906 147.652344 L 298.78125 147.628906 L 298.394531 148.675781 L 298.226562 148.984375 L 297.941406 149.199219 L 297.332031 149.164062 L 297.003906 149.277344 L 297.003906 149.28125 L 297 149.28125 L 296.898438 149.308594 L 296.789062 149.320312 L 296.679688 149.308594 L 296.578125 149.277344 L 296.488281 149.210938 L 296.390625 149.1875 L 296.296875 149.214844 L 296.199219 149.28125 L 296.125 150.035156 L 296.050781 150.371094 L 295.886719 150.570312 L 295.539062 150.917969 L 295.140625 150.894531 L 294.070312 150.226562 L 293.972656 150.199219 L 293.867188 150.21875 L 293.707031 150.332031 L 293.632812 150.359375 L 293.425781 150.328125 L 293.242188 150.339844 L 293.050781 150.410156 L 292.902344 150.558594 L 292.648438 150.964844 L 292.519531 151.09375 L 292.367188 151.109375 L 291.75 150.996094 L 290.882812 151.058594 L 290.414062 151.199219 L 290.09375 151.480469 L 290.007812 151.558594 L 289.964844 151.648438 L 289.941406 151.742188 L 289.910156 151.828125 L 289.914062 151.863281 L 289.929688 151.925781 L 289.9375 152 L 289.910156 152.066406 L 289.863281 152.09375 L 289.761719 152.089844 L 289.71875 152.113281 L 289.582031 152.238281 L 289.242188 152.433594 L 289.117188 152.558594 L 288.757812 153.226562 L 288.625 153.367188 L 288.496094 153.460938 L 288.402344 153.605469 L 288.371094 153.898438 L 288.140625 154.199219 L 288.078125 154.371094 L 288.042969 154.699219 L 288.078125 154.929688 L 288.144531 155.128906 L 288.144531 155.292969 L 287.984375 155.414062 L 287.785156 155.386719 L 287.667969 155.199219 L 287.53125 154.691406 L 287.519531 154.59375 L 287.496094 154.488281 L 287.449219 154.367188 L 287.398438 154.296875 L 287.195312 154.089844 L 287.167969 154.046875 L 287.15625 154.003906 L 287.167969 153.964844 L 287.195312 153.929688 L 287.226562 153.90625 L 287.242188 153.902344 L 287.261719 153.898438 L 287.3125 153.792969 L 287.316406 153.710938 L 287.28125 153.644531 L 287.195312 153.597656 L 286.863281 153.585938 L 286.695312 153.535156 L 286.566406 153.417969 L 286.519531 153.273438 L 286.523438 152.957031 L 286.457031 152.785156 L 286.234375 152.625 L 285.675781 152.582031 L 285.386719 152.558594 L 285.652344 152.84375 L 285.746094 153.007812 L 285.789062 153.273438 L 285.769531 153.507812 L 285.691406 153.59375 L 285.570312 153.675781 L 285.425781 153.898438 L 285.542969 154.117188 L 286.117188 154.484375 L 286.402344 154.804688 L 286.53125 155.007812 L 286.621094 155.230469 L 286.652344 155.507812 L 286.570312 155.925781 L 286.578125 156.203125 L 286.679688 156.484375 L 286.84375 156.636719 L 287.03125 156.746094 L 287.195312 156.894531 L 287.300781 157.078125 L 287.324219 157.265625 L 287.328125 157.433594 L 287.363281 157.550781 L 289.117188 158.515625 L 289.128906 158.515625 L 289.304688 158.695312 L 289.730469 158.742188 L 289.925781 158.933594 L 289.957031 159.203125 L 289.875 159.453125 L 289.863281 159.652344 L 290.335938 159.941406 L 290.503906 160.003906 L 290.574219 160.140625 L 290.539062 160.5 L 290.445312 160.78125 L 290.179688 161.289062 L 290.09375 161.574219 L 289.859375 161.5 L 289.789062 161.761719 L 289.785156 162.148438 L 289.746094 162.453125 L 289.5625 162.644531 L 289.085938 162.855469 L 288.949219 163.132812 L 289.003906 163.328125 L 289.125 163.566406 L 289.363281 163.921875 L 289.53125 164.078125 L 289.707031 164.203125 L 290.09375 164.394531 L 290.253906 164.480469 L 290.351562 164.675781 L 290.359375 164.921875 L 290.261719 165.148438 L 290.289062 165.171875 L 290.382812 165.21875 L 290.328125 165.363281 L 290.320312 165.410156 L 290.4375 165.558594 L 290.714844 165.714844 L 290.835938 165.855469 L 290.917969 166.054688 L 290.972656 166.464844 L 291.019531 166.683594 L 291.09375 166.902344 L 291.164062 167.070312 L 291.257812 167.207031 L 291.382812 167.34375 L 291.511719 167.382812 L 291.632812 167.367188 L 291.71875 167.4375 L 291.734375 167.75 L 291.769531 168.355469 L 291.828125 168.65625 L 291.957031 168.921875 L 292.183594 169.121094 L 292.71875 169.382812 L 292.953125 169.632812 L 293.332031 170.515625 L 293.515625 170.714844 L 293.746094 170.800781 L 294.425781 170.90625 L 294.644531 170.875 L 294.59375 170.636719 L 294.753906 170.585938 L 295.195312 170.710938 L 295.390625 170.820312 L 295.558594 170.964844 L 295.886719 171.324219 L 296.085938 171.410156 L 296.152344 171.5625 L 296.167969 171.738281 L 296.21875 171.910156 L 296.589844 172.371094 L 296.589844 172.375 L 296.734375 172.457031 L 297.820312 173.996094 L 297.972656 174.363281 L 298.15625 174.671875 L 298.484375 174.871094 L 299.183594 174.90625 L 299.417969 175 L 299.558594 175.128906 L 299.910156 175.621094 L 300.402344 176.148438 L 300.53125 176.46875 L 300.539062 176.988281 L 300.707031 177.269531 L 301.039062 177.597656 L 301.40625 177.875 L 301.675781 178.011719 L 301.792969 177.6875 L 301.90625 177.484375 L 302.066406 177.410156 L 302.140625 177.425781 L 302.332031 177.46875 L 302.535156 177.597656 L 302.730469 177.761719 L 302.929688 177.878906 L 303.140625 177.851562 L 303.167969 178.203125 L 303.292969 178.539062 L 303.472656 178.828125 L 303.667969 179.035156 L 303.890625 179.144531 L 304.320312 179.214844 L 304.484375 179.308594 L 304.753906 179.753906 L 305.3125 180.925781 Z M 305.539062 181.171875 "/>
<path style="fill:none;stroke-width:0.75;stroke-linecap:round;stroke-linejoin:round;stroke:rgb(0%,0%,0%);stroke-opacity:1;stroke-miterlimit:10;" d="M 310.105469 85.621094 L 309.910156 86.117188 L 309.8125 86.179688 L 309.703125 86.210938 L 309.90625 86.445312 L 310 86.734375 L 308.683594 86.875 L 308.425781 86.839844 L 308.234375 86.710938 L 307.964844 86.996094 L 307.625 87.183594 L 306.960938 87.351562 L 306.226562 87.363281 L 305.820312 87.25 L 305.609375 86.972656 L 305.757812 86.921875 L 306 86.746094 L 306.371094 86.671875 L 306.773438 86.453125 L 306.882812 86.34375 L 306.964844 85.808594 L 306.535156 85.039062 L 306.566406 84.566406 L 307.148438 84.601562 L 307.355469 84.679688 L 307.277344 84.816406 L 307.304688 84.921875 L 307.214844 85.28125 L 307.199219 85.574219 L 307.378906 85.269531 L 307.527344 85.195312 L 307.996094 85.195312 L 307.933594 85.242188 L 307.886719 85.289062 L 307.855469 85.355469 L 307.839844 85.460938 L 308.234375 85.574219 L 308.140625 85.335938 L 308.289062 84.882812 L 308.265625 84.386719 L 308.105469 84.082031 L 307.839844 84.1875 L 307.746094 83.886719 L 307.617188 83.636719 L 307.460938 83.441406 L 307.277344 83.304688 L 307.046875 83.25 L 306.816406 83.300781 L 306.699219 83.441406 L 306.800781 83.671875 L 306.800781 83.808594 L 306.703125 83.859375 L 306.597656 83.972656 L 306.511719 84.117188 L 306.480469 84.253906 L 306.410156 84.292969 L 306.003906 84.4375 L 306.027344 84.191406 L 306.117188 84.039062 L 306.207031 83.929688 L 306.238281 83.808594 L 306.179688 83.582031 L 306.09375 83.558594 L 305.992188 83.625 L 305.621094 83.78125 L 305.453125 83.996094 L 305.289062 84.148438 L 305.054688 84.0625 L 305.148438 83.703125 L 305.464844 83.09375 L 305.527344 82.613281 L 305.425781 82.328125 L 304.953125 81.859375 L 304.8125 81.652344 L 304.917969 81.445312 L 305.097656 81.265625 L 305.3125 81.1875 L 305.527344 81.273438 L 305.632812 81.453125 L 305.867188 82.058594 L 306.003906 82.296875 L 306.3125 82.589844 L 307.074219 83.007812 L 307.511719 83.167969 L 307.867188 83.375 L 309.902344 85.476562 L 310.101562 85.617188 Z M 310.105469 85.621094 "/>
<path style="fill:none;stroke-width:0.75;stroke-linecap:round;stroke-linejoin:round;stroke:rgb(0%,0%,0%);stroke-opacity:1;stroke-miterlimit:10;" d="M 224.242188 91.789062 L 223.980469 91.828125 L 223.578125 91.992188 L 223.363281 92.042969 L 223.363281 92.15625 L 223.492188 92.203125 L 223.59375 92.273438 L 223.679688 92.382812 L 223.761719 92.558594 L 223.65625 92.5 L 223.507812 92.332031 L 223.40625 92.292969 L 223.289062 92.3125 L 223.117188 92.398438 L 223.046875 92.421875 L 222.839844 92.324219 L 222.679688 92.105469 L 222.636719 91.890625 L 222.769531 91.789062 L 223.652344 91.535156 L 224.085938 91.5 Z M 224.242188 91.789062 "/>
<path style="fill:none;stroke-width:0.75;stroke-linecap:round;stroke-linejoin:round;stroke:rgb(0%,0%,0%);stroke-opacity:1;stroke-miterlimit:10;" d="M 225.117188 90.527344 L 225.546875 90.328125 L 227.125 90.132812 L 227.570312 90.265625 Z M 225.117188 90.527344 "/>
<path style="fill:none;stroke-width:0.75;stroke-linecap:round;stroke-linejoin:round;stroke:rgb(0%,0%,0%);stroke-opacity:1;stroke-miterlimit:10;" d="M 228.121094 89.875 L 228.652344 89.582031 L 229.277344 89.480469 L 230.589844 89.507812 L 230.597656 89.597656 L 230.578125 89.617188 L 230.546875 89.617188 L 230.007812 89.820312 L 228.589844 90 Z M 228.121094 89.875 "/>
<path style="fill:none;stroke-width:0.75;stroke-linecap:round;stroke-linejoin:round;stroke:rgb(0%,0%,0%);stroke-opacity:1;stroke-miterlimit:10;" d="M 230.828125 89.507812 L 231.019531 89.382812 L 231.253906 89.347656 L 231.476562 89.394531 L 231.625 89.507812 L 231.589844 89.582031 L 231.550781 89.609375 L 231.460938 89.632812 L 230.996094 89.5 Z M 230.828125 89.507812 "/>
<path style="fill:none;stroke-width:0.75;stroke-linecap:round;stroke-linejoin:round;stroke:rgb(0%,0%,0%);stroke-opacity:1;stroke-miterlimit:10;" d="M 239.558594 89.632812 L 239.703125 89.394531 L 239.929688 89.300781 L 240.191406 89.339844 L 240.433594 89.507812 L 240.269531 89.507812 L 240.15625 89.550781 L 239.96875 89.722656 L 239.914062 89.761719 L 239.8125 89.734375 L 239.75 89.691406 L 239.679688 89.683594 L 239.558594 89.761719 Z M 239.558594 89.632812 "/>
<path style="fill:none;stroke-width:0.75;stroke-linecap:round;stroke-linejoin:round;stroke:rgb(0%,0%,0%);stroke-opacity:1;stroke-miterlimit:10;" d="M 232.574219 88.878906 L 233.609375 88.867188 L 233.839844 89.003906 L 233.847656 89.085938 L 233.828125 89.101562 L 233.800781 89.101562 L 233.769531 89.117188 L 232.925781 89.09375 L 232.535156 89.183594 L 232.503906 89.507812 L 232.164062 89.523438 L 232.058594 89.4375 L 232.019531 89.1875 L 232.078125 88.976562 L 232.222656 88.890625 Z M 232.574219 88.878906 "/>
<path style="fill:none;stroke-width:0.75;stroke-linecap:round;stroke-linejoin:round;stroke:rgb(0%,0%,0%);stroke-opacity:1;stroke-miterlimit:10;" d="M 234.238281 88.878906 L 234.53125 88.527344 L 235.015625 88.425781 L 235.996094 88.488281 L 235.996094 88.613281 L 235.832031 88.613281 L 235.574219 88.769531 L 235.25 88.898438 L 234.914062 88.917969 L 234.632812 88.742188 L 234.527344 88.882812 L 234.425781 88.957031 L 234.328125 88.957031 Z M 234.238281 88.878906 "/>
<path style="fill:none;stroke-width:0.75;stroke-linecap:round;stroke-linejoin:round;stroke:rgb(0%,0%,0%);stroke-opacity:1;stroke-miterlimit:10;" d="M 236.703125 88.613281 L 236.480469 88.460938 L 236.53125 88.34375 L 236.738281 88.273438 L 236.980469 88.246094 L 237.167969 88.261719 L 237.34375 88.316406 L 237.652344 88.492188 L 237.539062 88.472656 L 237.414062 88.488281 L 236.929688 88.382812 L 236.71875 88.390625 Z M 236.703125 88.613281 "/>
<path style="fill:none;stroke-width:0.75;stroke-linecap:round;stroke-linejoin:round;stroke:rgb(0%,0%,0%);stroke-opacity:1;stroke-miterlimit:10;" d="M 277.269531 84.816406 L 277.441406 84.398438 L 277.859375 84.058594 L 278.339844 83.910156 L 278.6875 84.0625 L 278.34375 85.023438 L 278.222656 85.195312 L 278.078125 85.199219 L 278.070312 85.070312 L 278.148438 84.75 L 278.097656 84.535156 L 278 84.53125 L 277.9375 84.691406 L 277.988281 84.945312 L 277.820312 85.078125 L 277.636719 85.070312 L 277.449219 84.964844 Z M 277.269531 84.816406 "/>
<path style="fill:none;stroke-width:0.75;stroke-linecap:round;stroke-linejoin:round;stroke:rgb(0%,0%,0%);stroke-opacity:1;stroke-miterlimit:10;" d="M 279.042969 83.09375 L 279.042969 83.050781 L 279.105469 82.914062 L 279.890625 82.558594 L 280.054688 82.410156 L 279.859375 82.671875 L 279.324219 83.132812 L 279.167969 83.429688 L 279.105469 83.429688 Z M 279.042969 83.09375 "/>
<path style="fill:none;stroke-width:0.75;stroke-linecap:round;stroke-linejoin:round;stroke:rgb(0%,0%,0%);stroke-opacity:1;stroke-miterlimit:10;" d="M 249.324219 74.808594 L 249.269531 74.828125 L 249.242188 74.886719 L 249.238281 74.96875 L 249.25 75.070312 L 249.035156 75.261719 L 248.890625 75.488281 L 248.722656 75.699219 L 248.453125 75.828125 L 247.949219 75.863281 L 247.710938 75.785156 L 247.582031 75.574219 L 247.707031 75.511719 L 247.730469 75.40625 L 247.675781 75.296875 L 247.582031 75.207031 L 247.949219 74.878906 L 248.355469 74.707031 L 248.8125 74.683594 Z M 249.324219 74.808594 "/>
<path style="fill:none;stroke-width:0.75;stroke-linecap:round;stroke-linejoin:round;stroke:rgb(0%,0%,0%);stroke-opacity:1;stroke-miterlimit:10;" d="M 275.878906 75.636719 L 276.558594 76.835938 L 275.101562 76.609375 L 274.890625 76.722656 L 274.941406 76.796875 L 274.992188 76.828125 L 274.527344 76.859375 L 274.222656 76.8125 L 274.09375 76.660156 L 274.117188 76.28125 L 274.0625 76.136719 L 273.894531 76.082031 L 273.59375 76.070312 L 273.46875 76.109375 L 273.382812 76.21875 L 273.296875 76.21875 L 273.257812 76.082031 L 273.21875 76.003906 L 273.15625 76.003906 L 273.015625 76.082031 L 272.984375 75.828125 L 273.308594 75.082031 L 273.765625 74.667969 L 274.324219 74.582031 L 275.3125 74.976562 L 275.609375 75.214844 L 275.699219 75.328125 Z M 275.878906 75.636719 "/>
<path style="fill:none;stroke-width:0.75;stroke-linecap:round;stroke-linejoin:round;stroke:rgb(0%,0%,0%);stroke-opacity:1;stroke-miterlimit:10;" d="M 297.75 73.433594 L 297.464844 73.648438 L 297.398438 73.949219 L 297.386719 74.308594 L 297.277344 74.691406 L 297.191406 74.792969 L 297.027344 74.925781 L 296.957031 75.070312 L 296.917969 75.25 L 296.894531 75.4375 L 296.878906 75.828125 L 296.800781 75.828125 L 296.800781 75.574219 L 296.832031 75.148438 L 297.195312 73.9375 L 297.273438 73.46875 L 297.359375 73.339844 L 297.546875 73.292969 L 297.707031 73.285156 L 297.839844 73.304688 L 297.910156 73.414062 L 297.90625 73.621094 L 297.902344 73.597656 L 297.867188 73.5625 L 297.820312 73.554688 L 297.820312 73.808594 L 297.75 73.808594 Z M 297.75 73.433594 "/>
<path style="fill:none;stroke-width:0.75;stroke-linecap:round;stroke-linejoin:round;stroke:rgb(0%,0%,0%);stroke-opacity:1;stroke-miterlimit:10;" d="M 304.175781 77.238281 L 304.484375 77.765625 L 304.683594 78.007812 L 304.96875 78.109375 L 304.8125 78.214844 L 304.660156 78.390625 L 304.546875 78.628906 L 304.5 78.929688 L 304.5 79.222656 L 304.464844 79.339844 L 304.34375 79.328125 L 304.09375 79.246094 L 304.226562 79.246094 L 304.335938 79.1875 L 304.382812 79.0625 L 304.335938 78.867188 L 304.257812 78.867188 L 304.136719 78.988281 L 303.960938 79.050781 L 303.773438 79.050781 L 303.632812 78.992188 L 303.632812 78.867188 L 304.0625 78.695312 L 304.238281 78.5625 L 304.335938 78.351562 L 303.734375 78.390625 L 303.464844 78.46875 L 303.234375 78.613281 L 303.875 78.195312 L 304.09375 78.109375 L 304.09375 77.984375 L 303.78125 77.957031 L 303.621094 77.972656 L 303.507812 78.046875 L 303.347656 78.21875 L 303.25 78.175781 L 303.160156 78.054688 L 303.03125 77.984375 L 301.875 78.109375 L 301.667969 78.234375 L 301.058594 78.738281 L 300.925781 78.929688 L 300.792969 79.210938 L 300.507812 79.269531 L 300.253906 79.394531 L 300.210938 79.886719 L 300.367188 79.761719 L 300.371094 79.667969 L 300.347656 79.644531 L 300.3125 79.640625 L 300.296875 79.625 L 300.847656 79.53125 L 300.925781 79.566406 L 301.011719 79.988281 L 300.988281 80.183594 L 300.804688 80.265625 L 300.476562 80.21875 L 300.109375 80.09375 L 299.695312 79.84375 L 299.789062 79.746094 L 299.851562 79.527344 L 299.972656 79.246094 L 299.800781 79.339844 L 299.726562 79.414062 L 299.65625 79.507812 L 299.699219 79.558594 L 299.734375 79.625 L 299.503906 79.601562 L 299.378906 79.625 L 299.296875 79.691406 L 299.191406 79.742188 L 299.078125 79.671875 L 298.96875 79.5625 L 298.898438 79.507812 L 298.726562 79.480469 L 298.523438 79.386719 L 298.394531 79.226562 L 298.460938 78.992188 L 298.292969 78.945312 L 297.9375 79.105469 L 297.820312 79.121094 L 297.742188 78.976562 L 297.8125 78.851562 L 297.96875 78.796875 L 298.144531 78.867188 L 298.144531 78.75 L 297.425781 78.234375 L 297.585938 77.839844 L 297.8125 77.511719 L 298.109375 77.386719 L 298.460938 77.605469 L 298.539062 77.476562 L 298.675781 77.601562 L 298.835938 77.574219 L 299.179688 77.351562 L 298.996094 77.335938 L 298.859375 77.210938 L 298.804688 77.03125 L 298.855469 76.835938 L 298.855469 76.722656 L 298.699219 76.707031 L 298.613281 76.617188 L 298.539062 76.519531 L 298.421875 76.46875 L 297.90625 76.597656 L 298.109375 76.210938 L 298.195312 76.113281 L 298.507812 76.039062 L 298.855469 75.867188 L 299.09375 75.828125 L 299.09375 75.703125 L 299.109375 75.699219 L 299.179688 75.660156 L 299.253906 75.574219 L 298.929688 75.460938 L 298.789062 75.371094 L 298.699219 75.207031 L 298.738281 75.164062 L 298.773438 75.132812 L 298.796875 75.074219 L 298.785156 74.945312 L 298.445312 75.070312 L 298.234375 75.089844 L 298.144531 75.007812 L 298.117188 74.949219 L 298.066406 74.933594 L 298.011719 74.890625 L 297.984375 74.75 L 297.972656 74.589844 L 297.929688 74.492188 L 297.851562 74.449219 L 297.75 74.453125 L 298.015625 74.332031 L 298.902344 74.210938 L 299.09375 74.25 L 299.15625 74.363281 L 299.292969 74.410156 L 299.425781 74.507812 L 299.488281 74.75 L 299.539062 74.882812 L 299.628906 74.8125 L 299.671875 74.601562 L 299.574219 74.3125 L 299.742188 74.101562 L 299.953125 73.894531 L 300.171875 73.738281 L 300.367188 73.671875 L 300.238281 74.046875 L 300.152344 74.210938 L 300.050781 74.3125 L 300.125 74.3125 L 300.1875 74.324219 L 300.242188 74.367188 L 300.296875 74.453125 L 300.238281 74.539062 L 300.128906 74.808594 L 300.296875 74.816406 L 300.429688 74.773438 L 300.535156 74.65625 L 300.605469 74.453125 L 300.507812 74.425781 L 300.394531 74.339844 L 300.296875 74.3125 L 300.296875 74.1875 L 300.453125 74.050781 L 300.582031 74.296875 L 300.785156 74.539062 L 300.921875 74.789062 L 300.847656 75.070312 L 301.078125 75.378906 L 301.367188 75.476562 L 301.960938 75.460938 L 301.875 75.324219 L 301.988281 75.078125 L 302.042969 75.003906 L 302.121094 74.945312 L 302.121094 74.808594 L 302.03125 74.550781 L 301.96875 74.417969 L 301.875 74.3125 L 301.875 74.1875 L 301.945312 74.140625 L 301.984375 74.101562 L 302.03125 74.070312 L 302.121094 74.050781 L 302.121094 73.9375 L 301.976562 73.945312 L 301.882812 74.023438 L 301.808594 74.121094 L 301.726562 74.1875 L 301.601562 74.207031 L 301.203125 74.1875 L 301.140625 74.128906 L 301.078125 74 L 301 73.867188 L 300.886719 73.808594 L 300.714844 73.773438 L 300.640625 73.683594 L 300.601562 73.5625 L 300.523438 73.433594 L 300.390625 73.246094 L 300.363281 73.171875 L 300.210938 73.292969 L 300.117188 73.382812 L 299.933594 73.621094 L 299.660156 73.773438 L 299.464844 73.972656 L 299.253906 74.117188 L 299.023438 74.050781 L 298.980469 73.832031 L 299.0625 73.492188 L 299.214844 73.179688 L 299.378906 73.039062 L 299.414062 72.960938 L 299.460938 72.789062 L 299.488281 72.617188 L 299.453125 72.539062 L 298.9375 72.660156 L 298.765625 72.773438 L 298.691406 72.75 L 298.699219 72.539062 L 298.765625 72.414062 L 298.886719 72.289062 L 299.027344 72.195312 L 300.617188 71.769531 L 300.9375 71.761719 L 301.246094 71.917969 L 301.246094 72.03125 L 301.066406 72.164062 L 300.828125 72.292969 L 300.617188 72.464844 L 300.523438 72.726562 L 300.558594 73.054688 L 300.660156 73.316406 L 300.8125 73.519531 L 301.007812 73.671875 L 301.492188 73.824219 L 302.992188 73.554688 L 303.507812 73.660156 L 303.859375 74.019531 L 303.933594 74.496094 L 303.632812 74.945312 L 303.117188 75.265625 L 302.863281 75.492188 L 302.753906 75.765625 L 302.796875 76.074219 L 302.898438 76.398438 L 303.027344 76.671875 L 303.148438 76.835938 L 303.386719 76.953125 L 303.9375 77.078125 Z M 304.175781 77.238281 "/>
<path style="fill:none;stroke-width:0.75;stroke-linecap:round;stroke-linejoin:round;stroke:rgb(0%,0%,0%);stroke-opacity:1;stroke-miterlimit:10;" d="M 242.015625 71.664062 L 242.59375 72.675781 L 242.816406 72.789062 L 242.65625 72.914062 L 242.261719 73.046875 L 241.992188 72.816406 L 241.773438 72.449219 L 241.542969 72.160156 L 241.878906 71.574219 L 242.085938 71.363281 L 242.339844 71.277344 L 242.34375 71.363281 L 242.324219 71.382812 L 242.292969 71.378906 L 242.261719 71.402344 L 242.132812 71.523438 Z M 242.015625 71.664062 "/>
<path style="fill:none;stroke-width:0.75;stroke-linecap:round;stroke-linejoin:round;stroke:rgb(0%,0%,0%);stroke-opacity:1;stroke-miterlimit:10;" d="M 243.929688 70.507812 L 244.574219 70.542969 L 244.835938 70.691406 L 245.042969 71.023438 L 245.042969 71.148438 L 244.949219 71.296875 L 244.816406 71.652344 L 244.71875 71.78125 L 244.5625 71.828125 L 244.363281 71.804688 L 244.1875 71.742188 L 244.085938 71.664062 L 243.785156 71.769531 L 243.410156 71.664062 L 242.734375 71.277344 L 242.964844 70.886719 L 243.226562 70.652344 L 243.542969 70.539062 Z M 243.929688 70.507812 "/>
<path style="fill:none;stroke-width:0.75;stroke-linecap:round;stroke-linejoin:round;stroke:rgb(0%,0%,0%);stroke-opacity:1;stroke-miterlimit:10;" d="M 242.339844 66.964844 L 242.273438 67.617188 L 242.664062 67.960938 L 243.222656 68.089844 L 245.746094 67.972656 L 245.457031 68.183594 L 244.007812 68.109375 L 243.828125 68.199219 L 243.507812 68.429688 L 243.332031 68.476562 L 242.535156 68.476562 L 242.457031 68.441406 L 242.359375 68.28125 L 242.261719 68.234375 L 242.148438 68.242188 L 242.074219 68.269531 L 241.722656 68.496094 L 241.664062 68.546875 L 241.632812 68.679688 L 241.617188 69.042969 L 241.582031 69.121094 L 241.621094 70.128906 L 241.589844 70.457031 L 241.53125 70.710938 L 241.460938 70.765625 L 241.382812 70.507812 L 241.375 70.019531 L 241.507812 68.015625 L 241.617188 67.621094 L 242.496094 65.359375 L 242.980469 64.800781 L 243.535156 65.070312 L 242.828125 65.105469 L 242.734375 65.195312 L 243.054688 65.226562 L 243.152344 65.453125 L 243.046875 65.707031 L 242.578125 65.949219 L 242.359375 66.25 L 242.238281 66.621094 Z M 242.339844 66.964844 "/>
<path style="fill:none;stroke-width:0.75;stroke-linecap:round;stroke-linejoin:round;stroke:rgb(0%,0%,0%);stroke-opacity:1;stroke-miterlimit:10;" d="M 245.515625 74.457031 L 246.261719 74.164062 L 246.285156 74.363281 L 246.191406 74.816406 L 245.925781 75.210938 L 245.59375 75.386719 L 245.332031 75.382812 L 245.1875 75.257812 L 245.066406 74.992188 L 245.140625 74.695312 L 245.347656 74.542969 L 245.433594 74.507812 Z M 245.515625 74.457031 "/>
<path style="fill:none;stroke-width:0.75;stroke-linecap:round;stroke-linejoin:round;stroke:rgb(0%,0%,0%);stroke-opacity:1;stroke-miterlimit:10;" d="M 237.054688 81.148438 L 236.996094 81.191406 L 236.980469 81.113281 L 236.933594 81.101562 L 236.894531 81.015625 L 236.84375 80.960938 L 236.773438 80.898438 L 236.941406 80.886719 L 237.015625 80.960938 Z M 237.054688 81.148438 "/>
<path style="fill:none;stroke-width:0.75;stroke-linecap:round;stroke-linejoin:round;stroke:rgb(0%,0%,0%);stroke-opacity:1;stroke-miterlimit:10;" d="M 237.148438 80.929688 L 237.351562 80.875 L 237.394531 80.972656 L 237.210938 81.027344 Z M 237.148438 80.929688 "/>
</g>
</svg>
