<?xml version="1.0" encoding="UTF-8" standalone="no"?>
<!-- Created with Inkscape (http://www.inkscape.org/) -->

<svg
   xmlns:dc="http://purl.org/dc/elements/1.1/"
   xmlns:cc="http://creativecommons.org/ns#"
   xmlns:rdf="http://www.w3.org/1999/02/22-rdf-syntax-ns#"
   xmlns:svg="http://www.w3.org/2000/svg"
   xmlns="http://www.w3.org/2000/svg"
   xmlns:sodipodi="http://sodipodi.sourceforge.net/DTD/sodipodi-0.dtd"
   xmlns:inkscape="http://www.inkscape.org/namespaces/inkscape"
   width="184.57178mm"
   height="58.882954mm"
   viewBox="0 0 184.57178 58.882954"
   version="1.1"
   id="svg5"
   sodipodi:docname="Takuvik-Logo_instruments.svg"
   inkscape:version="0.92.5 (2060ec1f9f, 2020-04-08)"
   inkscape:export-filename="C:\Users\couellet\Dropbox\Takuvik-Administration-Finances\logo-takuvik\Etiquettes\etiquette_large_hydrofuge.png"
   inkscape:export-xdpi="600"
   inkscape:export-ydpi="600">
  <metadata
     id="metadata43">
    <rdf:RDF>
      <cc:Work
         rdf:about="">
        <dc:format>image/svg+xml</dc:format>
        <dc:type
           rdf:resource="http://purl.org/dc/dcmitype/StillImage" />
        <dc:title></dc:title>
      </cc:Work>
    </rdf:RDF>
  </metadata>
  <sodipodi:namedview
     id="namedview7"
     pagecolor="#ffffff"
     bordercolor="#666666"
     borderopacity="1.0"
     inkscape:pageshadow="2"
     inkscape:pageopacity="0.0"
     inkscape:pagecheckerboard="true"
     inkscape:document-units="mm"
     showgrid="true"
     inkscape:snap-grids="false"
     inkscape:snap-nodes="false"
     inkscape:zoom="0.67644892"
     inkscape:cx="119.82556"
     inkscape:cy="-333.6028"
     inkscape:window-width="2560"
     inkscape:window-height="1374"
     inkscape:window-x="0"
     inkscape:window-y="0"
     inkscape:window-maximized="1"
     inkscape:current-layer="layer1"
     fit-margin-top="2"
     fit-margin-left="2"
     fit-margin-right="2"
     fit-margin-bottom="2">
    <inkscape:grid
       type="xygrid"
       id="grid9"
       originx="-48.674545"
       originy="-460.82252" />
  </sodipodi:namedview>
  <defs
     id="defs2">
    <clipPath
       id="clip2">
      <path
         d="M 0.691406,0.21875 H 101.77344 V 37.117188 H 0.691406 Z m 0,0"
         id="path11"
         inkscape:connector-curvature="0" />
    </clipPath>
    <clipPath
       id="clip1">
      <rect
         x="0"
         y="0"
         width="102"
         height="38"
         id="rect14" />
    </clipPath>
    <g
       id="surface212626"
       clip-path="url(#clip1)">
      <g
         clip-path="url(#clip2)"
         id="g19"
         style="clip-rule:nonzero">
        <path
           style="fill:#00aed9;fill-opacity:1;fill-rule:nonzero;stroke:none"
           d="m 46.902344,7.847656 c -0.164063,0.039063 -0.328125,0.074219 -0.484375,0.113282 -0.976563,0.226562 -1.933594,0.457031 -2.886719,0.6875 -0.324219,0.078124 -0.648438,0.160156 -0.972656,0.238281 -0.863282,0.214843 -1.726563,0.429687 -2.574219,0.640625 -0.410156,0.105468 -0.816406,0.214844 -1.222656,0.320312 -0.769531,0.191406 -1.546875,0.398438 -2.304688,0.597656 -0.773437,0.203126 -1.53125,0.40625 -2.285156,0.617188 -0.71875,0.1875 -1.421875,0.382812 -2.125,0.582031 -0.828125,0.226563 -1.644531,0.457031 -2.449219,0.679688 -0.105468,0.03906 -0.21875,0.06641 -0.328125,0.09375 h 0.0078 C 16.339844,16.113281 6.230469,19.75 0.691406,21.863281 c 0.816406,0.78125 1.664063,1.554688 2.5625,2.332031 8.324219,7.242188 19.597656,14.003907 31.351563,12.78125 0.664062,-0.07422 1.339843,-0.171874 2.019531,-0.289062 9.199219,-1.632812 14.84375,-6.832031 21.515625,-13.203125 0.527344,-0.5 1.0625,-1.019531 1.605469,-1.53125 0.292968,-0.285156 0.601562,-0.574219 0.902344,-0.855469 0.277343,-0.265625 0.554687,-0.527344 0.835937,-0.796875 0.304687,-0.28125 0.617187,-0.570312 0.925781,-0.855469 0.296875,-0.269531 0.585938,-0.546874 0.886719,-0.820312 0.609375,-0.554688 1.234375,-1.117188 1.878906,-1.683594 0.539063,-0.476562 1.082031,-0.925781 1.632813,-1.375 0.167968,-0.140625 0.335937,-0.273437 0.503906,-0.40625 0.398438,-0.320312 0.792969,-0.632812 1.195312,-0.945312 0.183594,-0.140625 0.367188,-0.277344 0.550782,-0.414063 0.453125,-0.347656 0.921875,-0.683593 1.390625,-1.019531 0.109375,-0.07813 0.21875,-0.160156 0.328125,-0.234375 0.5625,-0.398437 1.132812,-0.777344 1.707031,-1.15625 0.195313,-0.125 0.394531,-0.25 0.589844,-0.375 0.398437,-0.253906 0.804687,-0.5 1.207031,-0.757813 0.230469,-0.136718 0.464844,-0.277343 0.695312,-0.410156 C 75.386719,9.605469 75.800781,9.367188 76.214844,9.132812 76.421875,9.015625 76.636719,8.890625 76.851562,8.777344 77.4375,8.453125 78.035156,8.140625 78.640625,7.832031 78.886719,7.710938 79.132812,7.59375 79.382812,7.476562 79.78125,7.277344 80.183594,7.082031 80.589844,6.886719 80.878906,6.753906 81.179688,6.617188 81.472656,6.488281 81.859375,6.3125 82.253906,6.140625 82.648438,5.972656 82.9375,5.847656 83.226562,5.71875 83.53125,5.59375 84.164062,5.335938 84.804688,5.082031 85.460938,4.828125 85.746094,4.71875 86.042969,4.613281 86.332031,4.503906 86.757812,4.34375 87.1875,4.1875 87.625,4.035156 c 0.34375,-0.113281 0.691406,-0.238281 1.035156,-0.351562 0.414063,-0.140625 0.832032,-0.273438 1.25,-0.40625 0.347656,-0.109375 0.6875,-0.226563 1.039063,-0.328125 C 94.289062,1.917969 97.875,1.019531 101.77734,0.214844 82.449219,0.808594 63.402344,4 46.902344,7.847656"
           id="path17"
           inkscape:connector-curvature="0" />
      </g>
    </g>
  </defs>
  <g
     inkscape:label="Layer 1"
     inkscape:groupmode="layer"
     id="layer1"
     transform="translate(-13.546819,-8.8748303)">
    <g
       id="g40757"
       transform="matrix(1.2652931,0,0,1.2652931,-35.706303,-26.910954)">
      <g
         id="g40127"
         transform="matrix(0.35277777,0,0,0.35277777,-0.44245281,-24.529616)">
        <g
           id="g45798"
           transform="matrix(0.81873535,0,0,0.81873535,57.53153,55.756315)">
          <g
             id="g40113" />
        </g>
      </g>
    </g>
    <path
       inkscape:connector-curvature="0"
       id="path144"
       d="m 21.98416,48.561223 h -6.437341 v -4.298147 h 17.530684 v 4.298147 H 26.636204 V 65.419705 H 21.98416 Z m 0,0"
       style="fill:#ffffff;fill-opacity:1;fill-rule:nonzero;stroke:none;stroke-width:0.50613004" />
    <path
       inkscape:connector-curvature="0"
       id="path146"
       d="m 49.087817,56.572315 -2.811395,-6.866368 -2.807437,6.866368 -1.66865,4.104395 -1.929621,4.742995 h -4.74299 l 9.066844,-21.298978 h 4.288267 l 9.068823,21.298978 H 52.684109 L 50.748557,60.67671 Z m 0,0"
       style="fill:#ffffff;fill-opacity:1;fill-rule:nonzero;stroke:none;stroke-width:0.50613004" />
    <path
       inkscape:connector-curvature="0"
       id="path148"
       d="m 63.832807,44.263076 h 4.654023 v 9.252689 l 8.586419,-9.252689 h 5.612901 l -8.608163,8.977876 9.005556,12.178753 H 77.494365 L 70.930491,56.41217 68.48683,58.952705 v 6.467 h -4.654023 z m 0,0"
       style="fill:#ffffff;fill-opacity:1;fill-rule:nonzero;stroke:none;stroke-width:0.50613004" />
    <path
       inkscape:connector-curvature="0"
       id="path150"
       d="M 88.131001,56.356815 V 44.263076 h 4.654028 v 11.971159 c 0,3.446032 1.722026,5.223419 4.561102,5.223419 2.843019,0 4.567029,-1.720048 4.567029,-5.073159 V 44.263076 h 4.65403 v 11.941505 c 0,6.409661 -3.59827,9.553204 -9.27642,9.553204 -5.686052,0 -9.159769,-3.175176 -9.159769,-9.40097"
       style="fill:#ffffff;fill-opacity:1;fill-rule:nonzero;stroke:none;stroke-width:0.50613004" />
    <path
       inkscape:connector-curvature="0"
       id="path152"
       d="m 112.51619,44.263076 h 5.13643 l 5.53382,14.903155 5.52591,-14.903155 h 5.01583 l -8.55083,21.308863 h -4.11033 z m 0,0"
       style="fill:#ffffff;fill-opacity:1;fill-rule:nonzero;stroke:none;stroke-width:0.50613004" />
    <path
       inkscape:connector-curvature="0"
       id="path154"
       d="m 140.22483,44.270982 h 4.65798 v 21.148723 h -4.65798 z m 0,0"
       style="fill:#ffffff;fill-opacity:1;fill-rule:nonzero;stroke:none;stroke-width:0.50613004" />
    <path
       inkscape:connector-curvature="0"
       id="path156"
       d="m 153.19046,44.263076 h 4.65007 v 9.252689 l 8.58048,-9.252689 h 5.62675 l -8.61805,8.977876 9.00753,12.178753 h -5.58918 l -6.55597,-9.007535 -2.45156,2.540535 v 6.467 h -4.65007 z m 0,0"
       style="fill:#ffffff;fill-opacity:1;fill-rule:nonzero;stroke:none;stroke-width:0.50613004" />
    <path
       inkscape:connector-curvature="0"
       id="path158"
       d="m 181.27672,10.882217 c -10.0969,1.941484 -16.09335,5.992503 -20.0554,9.529482 -1.05378,1.073547 -2.05616,2.121393 -3.05062,3.117836 5.52987,3.293804 9.84383,6.399777 16.3049,6.188235 11.05182,-0.349944 18.52317,-11.836721 21.64299,-17.746184 -4.98617,-0.834325 -9.72521,-1.150656 -14.84187,-1.089369"
       style="fill:#abb0b0;fill-opacity:1;fill-rule:nonzero;stroke:none;stroke-width:0.50613004" />
    <path
       inkscape:connector-curvature="0"
       id="path162"
       d="m 150.78634,14.786934 c -0.083,0.01979 -0.16607,0.03755 -0.24515,0.05733 -0.49427,0.114669 -0.97866,0.231317 -1.46106,0.347965 -0.1641,0.03953 -0.3282,0.08106 -0.49229,0.1206 -0.43693,0.108737 -0.87387,0.217479 -1.30289,0.324237 -0.20759,0.05338 -0.41321,0.108742 -0.61882,0.162124 -0.38948,0.09687 -0.78293,0.201657 -1.16648,0.302489 -0.39146,0.10281 -0.77501,0.205615 -1.15658,0.312378 -0.36378,0.0949 -0.71965,0.193752 -1.07553,0.294583 -0.41914,0.114669 -0.83235,0.231316 -1.23962,0.344011 -0.0534,0.01979 -0.11071,0.03361 -0.16608,0.04742 h 0.004 c -6.54805,1.870307 -11.66471,3.71096 -14.46819,4.780555 0.4132,0.395414 0.84223,0.788849 1.29695,1.18031 4.21314,3.66549 9.91896,7.087799 15.86797,6.468974 0.3361,-0.03953 0.67813,-0.08699 1.02215,-0.146302 4.656,-0.826414 7.51286,-3.457895 10.8897,-6.6825 0.2669,-0.253065 0.53776,-0.516015 0.81257,-0.775012 0.14828,-0.144323 0.30448,-0.288651 0.45671,-0.432974 0.14037,-0.134443 0.28074,-0.266907 0.42309,-0.403324 0.15421,-0.14235 0.31238,-0.288651 0.46857,-0.43298 0.15025,-0.136417 0.29656,-0.276787 0.44879,-0.415183 0.30842,-0.280745 0.62476,-0.565443 0.95097,-0.852115 0.27284,-0.241207 0.54765,-0.468571 0.82642,-0.695929 0.085,-0.07118 0.17003,-0.138396 0.25504,-0.205616 0.20166,-0.162123 0.40135,-0.320289 0.60498,-0.478454 0.0929,-0.07117 0.18585,-0.142349 0.27877,-0.209569 0.22934,-0.175961 0.46659,-0.347964 0.70384,-0.516014 0.0554,-0.03953 0.11071,-0.08106 0.16607,-0.118627 0.2847,-0.201657 0.57335,-0.395414 0.86398,-0.585213 0.0989,-0.06327 0.19969,-0.126532 0.29854,-0.189799 0.20166,-0.128506 0.40728,-0.253065 0.61091,-0.38355 0.11665,-0.0692 0.23527,-0.14037 0.35192,-0.207589 0.2076,-0.124559 0.41716,-0.24516 0.62673,-0.359828 0.10479,-0.06129 0.21353,-0.124559 0.32226,-0.181893 0.29657,-0.164098 0.59906,-0.322263 0.9055,-0.47845 0.12456,-0.05931 0.24911,-0.120601 0.37565,-0.181888 0.20166,-0.09886 0.4053,-0.19771 0.61091,-0.296562 0.14631,-0.06722 0.29854,-0.136417 0.44682,-0.201662 0.19573,-0.08897 0.39542,-0.175962 0.5951,-0.260971 0.1463,-0.06327 0.2926,-0.128512 0.44682,-0.191778 0.32028,-0.130485 0.64452,-0.258997 0.97667,-0.387508 0.14432,-0.05536 0.29458,-0.108737 0.44089,-0.164093 0.2155,-0.08106 0.43297,-0.160144 0.65441,-0.235274 0.17398,-0.05931 0.34994,-0.12258 0.52392,-0.179914 0.20957,-0.07117 0.42112,-0.138391 0.63266,-0.205615 0.17596,-0.05536 0.34797,-0.114669 0.5259,-0.166072 1.6904,-0.521946 3.50535,-0.976674 5.48044,-1.381973 -9.78254,0.298536 -19.42274,1.915783 -27.77388,3.861221"
       style="fill:#00aed9;fill-opacity:1;fill-rule:nonzero;stroke:none;stroke-width:0.50613004" />
    <path
       inkscape:connector-curvature="0"
       id="path584"
       d="m 155.7464,22.028316 c -1.97954,-1.114256 -5.09503,-2.528941 -7.16012,-3.251285 -1.85154,-0.647632 -4.41363,-1.357198 -5.97891,-1.655845 -0.58448,-0.11152 -0.70168,-0.06179 1.63576,-0.693878 11.79314,-3.189018 23.00147,-5.020824 33.4337,-5.464139 l 0.88143,-0.03744 -1.02248,0.235325 c -6.01287,1.383873 -9.98109,2.963573 -13.85634,5.516028 -1.9472,1.282531 -3.36273,2.437576 -5.87971,4.797649 -0.59655,0.559365 -1.1201,1.01546 -1.16351,1.013543 -0.0435,-0.0019 -0.44378,-0.20889 -0.88982,-0.459941 z"
       style="fill:#007b9b;fill-opacity:1;stroke-width:0.07009438" />
  </g>
</svg>
